<svg xmlns="http://www.w3.org/2000/svg" xmlns:xlink="http://www.w3.org/1999/xlink" width="1080" zoomAndPan="magnify" viewBox="0 0 810 809.999993" height="1080" preserveAspectRatio="xMidYMid meet" version="1.0"><defs><clipPath id="1612c9822f"><path d="M 147 123.75 L 662.835938 123.75 L 662.835938 686 L 147 686 Z M 147 123.75 " clip-rule="nonzero"/></clipPath></defs><g clip-path="url(#1612c9822f)"><path fill="#cb6ce6" d="M 655.414062 395.945312 C 650.890625 395.945312 642.832031 376.921875 639.378906 368.789062 C 638 365.488281 636.617188 362.34375 635.238281 359.273438 C 638.691406 355.285156 643.445312 348.074219 645.824219 336.257812 C 647.359375 328.738281 645.824219 318.230469 644.0625 307.027344 C 642.757812 298.207031 639.6875 277.644531 643.445312 275.417969 C 647.128906 273.269531 648.355469 268.589844 646.285156 264.910156 C 644.289062 261.378906 639.457031 260.304688 635.773438 262.070312 C 632.015625 263.910156 615.289062 250.714844 609 245.726562 C 600.023438 238.671875 591.582031 231.996094 584.296875 229.539062 C 572.710938 225.628906 562.046875 226.011719 555.910156 226.855469 C 554.144531 224.398438 552.226562 221.945312 550.308594 219.414062 C 544.476562 211.816406 532.355469 195.9375 534.8125 191.71875 C 536.882812 188.035156 535.65625 183.355469 532.050781 181.285156 C 530.285156 180.210938 528.210938 179.980469 526.21875 180.441406 C 524.222656 180.976562 522.535156 182.28125 521.539062 184.046875 C 519.238281 187.957031 498.753906 185.425781 490.007812 184.351562 C 486.628906 183.890625 483.332031 183.585938 480.109375 183.203125 C 479.035156 178.75 475.582031 169.390625 464.6875 159.800781 C 458.933594 154.738281 449.039062 150.824219 438.527344 146.683594 C 430.242188 143.460938 410.832031 135.789062 410.832031 131.414062 C 410.832031 127.042969 407.378906 123.742188 403.160156 123.742188 C 398.9375 123.742188 395.714844 127.347656 395.488281 131.414062 C 395.179688 135.558594 375.386719 143.460938 367.945312 146.453125 C 357.355469 150.671875 347.382812 154.660156 341.628906 159.726562 C 330.734375 169.316406 325.746094 180.898438 323.984375 185.734375 C 321.453125 186.039062 318.84375 186.347656 316.15625 186.730469 C 306.644531 187.957031 286.851562 190.566406 284.394531 186.347656 C 283.320312 184.582031 281.632812 183.277344 279.640625 182.742188 C 277.644531 182.203125 275.496094 182.585938 273.730469 183.660156 C 270.203125 185.808594 269.050781 190.414062 271.121094 194.019531 C 273.425781 197.933594 260.917969 214.425781 255.625 221.484375 C 254.089844 223.480469 252.632812 225.472656 251.175781 227.46875 C 248.335938 226.394531 237.671875 223.097656 221.40625 228.542969 C 214.195312 231 205.832031 237.597656 196.933594 244.65625 C 189.953125 250.179688 173.6875 263.144531 169.929688 260.996094 C 168.164062 260 166.015625 259.691406 164.019531 260.230469 C 162.027344 260.765625 160.339844 262.148438 159.339844 263.910156 C 157.421875 267.363281 158.882812 272.042969 162.179688 274.269531 C 165.632812 276.570312 162.640625 297.667969 161.488281 305.648438 C 159.878906 316.925781 158.34375 327.589844 159.878906 335.109375 C 163.101562 350.988281 172 361.730469 174.609375 364.566406 C 173.382812 367.40625 172.152344 370.324219 170.925781 373.316406 C 167.242188 382.136719 159.570312 400.625 154.738281 400.625 C 150.519531 400.625 147.066406 404.078125 147.066406 408.300781 C 147.066406 412.519531 150.519531 415.972656 154.738281 415.972656 C 159.265625 415.972656 167.320312 434.996094 170.773438 443.128906 C 171.464844 444.742188 172.152344 446.277344 172.765625 447.886719 C 169.851562 450.417969 162.5625 458.089844 159.417969 473.664062 C 157.882812 481.183594 159.417969 491.695312 161.183594 502.894531 C 162.488281 511.71875 165.554688 532.277344 161.796875 534.503906 C 158.113281 536.574219 156.886719 541.332031 158.957031 545.015625 C 159.953125 546.777344 161.644531 548.082031 163.636719 548.621094 C 165.632812 549.15625 167.703125 548.851562 169.46875 547.851562 C 172.996094 545.859375 189.875 559.132812 196.320312 564.195312 C 205.296875 571.253906 213.734375 577.925781 221.023438 580.304688 C 228.464844 582.835938 235.523438 583.527344 241.203125 583.527344 C 246.1875 583.527344 250.179688 582.992188 252.480469 582.53125 C 254.78125 585.753906 257.238281 589.050781 259.84375 592.429688 C 265.675781 600.023438 277.796875 615.902344 275.34375 620.125 C 273.269531 623.804688 274.5 628.488281 278.105469 630.558594 C 279.332031 631.25 280.636719 631.632812 282.015625 631.632812 C 282.707031 631.632812 283.320312 631.554688 283.933594 631.402344 C 285.929688 630.863281 287.617188 629.558594 288.613281 627.796875 C 290.917969 623.882812 311.402344 626.414062 320.148438 627.488281 C 321.988281 627.71875 323.753906 627.949219 325.59375 628.101562 C 327.050781 632.9375 330.8125 641.296875 340.554688 649.890625 C 346.308594 654.953125 356.207031 658.867188 366.714844 663.011719 C 375.003906 666.234375 394.414062 673.90625 394.414062 678.277344 C 394.414062 682.652344 397.863281 685.949219 402.085938 685.949219 C 406.304688 685.949219 409.527344 682.34375 409.757812 678.277344 C 409.988281 674.136719 429.855469 666.234375 437.300781 663.242188 C 447.886719 659.019531 457.859375 655.03125 463.613281 649.96875 C 472.898438 641.757812 477.882812 632.246094 480.261719 626.570312 C 484.636719 626.183594 489.238281 625.648438 493.996094 625.035156 C 503.507812 623.804688 523.304688 621.199219 525.757812 625.417969 C 526.753906 627.183594 528.519531 628.488281 530.4375 629.023438 C 531.050781 629.175781 531.742188 629.253906 532.355469 629.253906 C 533.738281 629.253906 535.039062 628.871094 536.269531 628.179688 C 539.875 626.03125 541.101562 621.351562 539.03125 617.746094 C 536.730469 613.832031 549.234375 597.339844 554.527344 590.28125 C 556.214844 588.054688 557.902344 585.828125 559.515625 583.683594 C 561.433594 583.988281 563.65625 584.296875 566.417969 584.296875 C 571.175781 584.296875 577.082031 583.527344 583.910156 581.226562 C 591.125 578.773438 599.484375 572.097656 608.386719 565.117188 C 615.367188 559.589844 631.632812 546.625 635.390625 548.773438 C 637.15625 549.769531 639.226562 550.078125 641.222656 549.542969 C 643.214844 549.003906 644.90625 547.699219 645.902344 545.933594 C 647.898438 542.40625 646.4375 537.726562 643.0625 535.5 C 639.609375 533.199219 642.601562 512.101562 643.753906 504.121094 C 645.363281 492.84375 646.898438 482.179688 645.441406 474.660156 C 643.214844 463.539062 638.152344 454.945312 634.394531 449.804688 C 636.003906 446.199219 637.691406 442.441406 639.304688 438.527344 C 642.988281 429.703125 650.660156 411.214844 655.492188 411.214844 C 659.710938 411.214844 663.164062 407.761719 663.164062 403.542969 C 663.164062 399.324219 659.710938 395.871094 655.492188 395.871094 Z M 579.386719 244.195312 C 584.140625 245.804688 591.96875 251.941406 599.484375 257.851562 C 608.769531 265.140625 618.28125 272.65625 627.105469 275.878906 C 625.339844 285.238281 627.105469 297.359375 628.945312 309.328125 C 630.328125 318.691406 631.785156 328.433594 630.789062 333.265625 C 629.789062 338.253906 628.257812 341.9375 626.796875 344.621094 C 626.339844 344.085938 625.953125 343.394531 625.496094 342.855469 C 613.679688 330.199219 598.566406 330.886719 593.347656 331.578125 C 592.886719 317.460938 593.808594 304.1875 600.40625 300.351562 C 602.171875 299.355469 603.476562 297.667969 603.9375 295.671875 C 604.472656 293.679688 604.167969 291.605469 603.167969 289.84375 C 601.019531 286.160156 596.339844 284.933594 592.65625 287.003906 C 586.136719 290.761719 573.632812 284.394531 561.28125 276.648438 C 564.042969 272.65625 570.792969 260.535156 565.804688 244.269531 C 565.574219 243.503906 565.117188 242.660156 564.730469 241.816406 C 568.953125 241.816406 574.015625 242.429688 579.308594 244.195312 Z M 578.925781 347.921875 C 579.769531 360.578125 580.691406 373.699219 578.464844 380.832031 C 574.246094 394.183594 560.359375 396.023438 555.066406 396.253906 C 552.457031 346.769531 526.601562 303.34375 487.933594 277.105469 C 491.464844 272.121094 499.671875 263.144531 512.101562 265.90625 C 519.464844 267.515625 530.589844 274.882812 541.253906 281.941406 C 554.605469 290.839844 568.261719 299.894531 580.84375 302.65625 C 576.777344 315.007812 577.851562 331.65625 579 347.921875 Z M 580.613281 508.113281 C 567.800781 510.71875 553.992188 520.082031 540.488281 529.132812 C 529.976562 536.191406 519.082031 543.558594 511.71875 545.167969 C 497.753906 548.238281 489.085938 536.574219 486.476562 532.355469 C 525.222656 506.65625 551.535156 463.84375 554.835938 414.820312 C 560.28125 415.128906 573.863281 417.121094 578.003906 430.242188 C 580.304688 437.453125 579.460938 450.726562 578.695312 463.539062 C 577.699219 479.570312 576.699219 495.914062 580.535156 508.1875 Z M 440.367188 586.75 C 426.019531 593.886719 411.292969 601.175781 402.621094 610.6875 C 393.953125 600.945312 378.992188 593.578125 364.339844 586.445312 C 352.984375 580.84375 341.167969 575.089844 336.105469 569.566406 C 326.976562 559.589844 331.730469 547.007812 334.1875 542.023438 C 354.59375 552.074219 377.535156 557.902344 401.777344 557.902344 C 426.019531 557.902344 449.726562 551.917969 470.441406 541.484375 C 472.898438 546.089844 478.269531 559.132812 468.832031 569.566406 C 463.691406 575.164062 451.800781 581.074219 440.367188 586.75 Z M 224.785156 507.804688 C 228.925781 495.453125 227.777344 478.804688 226.625 462.539062 C 225.78125 449.882812 224.859375 436.761719 227.164062 429.628906 C 230.921875 417.660156 242.582031 414.972656 248.71875 414.359375 C 251.941406 463.921875 278.71875 507.191406 318.074219 532.894531 C 314.777344 537.726562 306.414062 547.46875 293.523438 544.632812 C 286.160156 543.019531 275.035156 535.65625 264.371094 528.597656 C 251.023438 519.695312 237.367188 510.644531 224.785156 507.882812 Z M 224.9375 302.347656 C 237.75 299.738281 251.558594 290.378906 265.0625 281.328125 C 275.574219 274.269531 286.46875 266.902344 293.832031 265.292969 C 305.800781 262.683594 313.855469 270.816406 317.539062 275.878906 C 278.105469 301.886719 251.40625 345.542969 248.644531 395.488281 C 242.429688 394.796875 231.226562 391.957031 227.46875 380.21875 C 225.167969 373.007812 226.011719 359.734375 226.777344 346.921875 C 227.777344 330.886719 228.773438 314.546875 224.9375 302.269531 Z M 336.71875 240.894531 C 341.859375 235.292969 353.675781 229.386719 365.183594 223.710938 C 379.527344 216.574219 394.257812 209.285156 402.929688 199.773438 C 411.597656 209.515625 426.558594 216.882812 441.210938 224.015625 C 452.566406 229.617188 464.382812 235.371094 469.445312 240.894531 C 478.113281 250.410156 474.277344 262.148438 471.746094 267.59375 C 450.726562 256.777344 427.019531 250.5625 401.777344 250.5625 C 376.535156 250.5625 354.441406 256.394531 333.957031 266.519531 C 331.425781 260.6875 328.511719 249.792969 336.71875 240.820312 Z M 401.777344 542.558594 C 325.519531 542.558594 263.449219 480.492188 263.449219 404.234375 C 263.449219 327.972656 325.519531 265.90625 401.777344 265.90625 C 478.039062 265.90625 540.105469 327.972656 540.105469 404.234375 C 540.105469 480.492188 478.039062 542.558594 401.777344 542.558594 Z M 520.539062 200.695312 C 523.53125 209.746094 530.898438 219.335938 538.109375 228.773438 C 541.023438 232.609375 543.941406 236.445312 546.394531 239.972656 C 548.695312 243.351562 550.460938 246.417969 551.230469 248.71875 C 554.679688 259.921875 548.925781 267.671875 548.542969 268.285156 C 536.574219 260.382812 525.296875 253.015625 515.402344 250.792969 C 505.503906 248.644531 496.988281 250.792969 490.160156 254.628906 C 490.160156 246.648438 487.78125 238.054688 480.800781 230.539062 C 473.972656 223.097656 462.003906 217.113281 449.191406 210.820312 C 450.496094 207.90625 454.636719 200.617188 463.996094 198.390625 C 468.90625 197.242188 478.652344 198.46875 488.089844 199.621094 C 499.671875 201.078125 511.410156 202.535156 520.617188 200.769531 Z M 351.601562 171.308594 C 355.363281 168.011719 364.566406 164.328125 373.46875 160.722656 C 384.4375 156.347656 395.640625 151.824219 402.851562 145.839844 C 410.0625 152.054688 421.496094 156.503906 432.695312 160.953125 C 441.519531 164.40625 450.648438 168.011719 454.332031 171.308594 C 459.472656 175.835938 462.15625 179.980469 463.539062 182.894531 C 462.464844 183.046875 461.3125 183.046875 460.316406 183.277344 C 445.203125 186.730469 437.988281 198.007812 435.226562 203.761719 C 422.339844 197.011719 410.601562 189.339844 410.601562 181.4375 C 410.601562 177.21875 407.148438 173.765625 402.851562 173.765625 C 398.554688 173.765625 395.179688 177.21875 395.179688 181.4375 C 395.179688 189.109375 382.980469 196.859375 369.863281 203.839844 C 366.792969 198.546875 359.582031 189.03125 345.15625 185.65625 C 343.855469 185.347656 342.320312 185.273438 340.785156 185.121094 C 342.933594 181.054688 346.386719 175.835938 351.527344 171.308594 Z M 284.933594 203.148438 C 294.214844 205.066406 306.261719 203.53125 318 201.996094 C 327.28125 200.769531 336.949219 199.542969 341.78125 200.617188 C 350.222656 202.535156 354.441406 207.828125 356.28125 210.742188 C 343.699219 217.035156 331.960938 223.019531 325.289062 230.308594 C 318.460938 237.75 316.003906 246.1875 315.925781 254.089844 C 309.023438 250.101562 300.429688 247.875 290.378906 250.101562 C 280.328125 252.328125 268.820312 260 256.699219 268.128906 C 254.703125 264.679688 252.171875 258.464844 254.550781 250.945312 C 256.007812 246.113281 261.917969 238.285156 267.671875 230.691406 C 274.730469 221.40625 281.863281 211.894531 284.933594 203.070312 Z M 174.761719 332.191406 C 173.765625 327.28125 175.222656 317.460938 176.527344 307.949219 C 178.214844 296.210938 179.902344 284.320312 178.292969 275.035156 C 187.265625 271.890625 196.859375 264.21875 206.292969 256.699219 C 213.734375 250.792969 221.40625 244.730469 226.089844 243.121094 C 233.53125 240.589844 238.976562 240.664062 242.121094 241.046875 C 241.203125 242.890625 240.359375 244.730469 239.820312 246.496094 C 235.753906 259.84375 240.28125 270.738281 243.808594 276.648438 C 231.765625 284.164062 219.644531 290.148438 212.96875 286.3125 C 209.285156 284.164062 204.605469 285.46875 202.457031 289.152344 C 201.460938 290.917969 201.152344 292.988281 201.691406 294.984375 C 202.226562 296.976562 203.53125 298.589844 205.296875 299.664062 C 212.277344 303.652344 212.585938 319.535156 211.894531 335.183594 C 205.679688 335.183594 194.171875 336.871094 184.277344 347.535156 C 183.585938 348.226562 182.972656 349.222656 182.359375 350.066406 C 179.671875 346.15625 176.21875 340.019531 174.683594 332.191406 Z M 169.316406 408.453125 C 175.605469 401.316406 180.285156 390.191406 184.8125 379.222656 C 188.417969 370.550781 192.175781 361.578125 195.554688 357.96875 C 201.152344 351.910156 207.523438 350.683594 211.128906 350.527344 C 210.359375 363.648438 209.898438 375.921875 212.738281 384.824219 C 215.808594 394.566406 222.023438 400.78125 228.851562 404.769531 C 221.867188 408.757812 215.5 415.050781 212.433594 424.871094 C 209.285156 434.765625 210.207031 448.730469 211.28125 463.460938 C 211.28125 464.074219 211.359375 464.765625 211.433594 465.457031 C 207.445312 465.457031 200.921875 464.382812 195.628906 458.703125 C 192.175781 455.023438 188.339844 445.96875 184.660156 437.222656 C 180.132812 426.480469 175.53125 415.511719 169.390625 408.453125 Z M 225.550781 565.804688 C 220.792969 564.195312 212.96875 558.058594 205.449219 552.148438 C 196.167969 544.859375 186.652344 537.34375 177.832031 534.121094 C 179.59375 524.761719 177.832031 512.640625 175.988281 500.671875 C 174.609375 491.308594 173.152344 481.566406 174.148438 476.734375 C 175.53125 469.90625 177.832031 465.457031 179.75 462.769531 C 181.207031 465.226562 182.664062 467.449219 184.351562 469.136719 C 193.480469 478.957031 204.605469 480.722656 211.664062 480.722656 C 211.816406 480.722656 211.972656 480.722656 212.203125 480.722656 C 212.507812 494.074219 211.433594 506.269531 205.144531 509.953125 C 203.378906 511.027344 202.074219 512.714844 201.539062 514.785156 C 201 516.78125 201.382812 518.929688 202.457031 520.695312 C 204.683594 524.222656 209.210938 525.375 212.816406 523.304688 C 220.027344 519.160156 234.527344 527.367188 248.105469 536.113281 C 245.113281 540.796875 239.359375 552.457031 244.039062 567.722656 C 244.039062 567.800781 244.117188 567.953125 244.195312 568.03125 C 239.515625 568.335938 232.761719 568.109375 225.628906 565.730469 Z M 289.230469 611.222656 C 286.238281 602.171875 278.871094 592.582031 271.660156 583.144531 C 265.984375 575.703125 260.074219 567.953125 258.617188 563.199219 C 255.703125 553.761719 259.308594 546.777344 260.765625 544.476562 C 271.277344 551.382812 281.25 557.441406 290.074219 559.363281 C 292.835938 559.976562 295.441406 560.207031 297.976562 560.207031 C 304.574219 560.207031 310.328125 558.289062 315.3125 555.449219 C 315.3125 563.425781 317.691406 572.019531 324.671875 579.617188 C 331.65625 587.289062 344.238281 593.425781 357.511719 599.945312 C 358.507812 600.40625 359.503906 600.945312 360.578125 601.480469 C 359.121094 604.625 354.902344 611.453125 345.925781 613.527344 C 341.015625 614.675781 331.273438 613.449219 321.835938 612.296875 C 310.25 610.839844 298.511719 609.382812 289.304688 611.148438 Z M 453.257812 638.535156 C 449.496094 641.835938 440.292969 645.519531 431.390625 649.125 C 420.421875 653.496094 409.21875 658.023438 402.007812 664.007812 C 394.796875 657.792969 383.363281 653.34375 372.164062 648.894531 C 363.339844 645.441406 354.210938 641.835938 350.527344 638.535156 C 346.691406 635.160156 344.238281 631.9375 342.625 629.332031 C 345.082031 629.253906 347.304688 629.023438 349.378906 628.5625 C 364.109375 625.1875 371.242188 614.523438 374.160156 608.617188 C 385.359375 614.832031 394.71875 621.660156 394.71875 628.714844 C 394.71875 632.9375 398.171875 636.386719 402.46875 636.386719 C 406.765625 636.386719 410.140625 632.9375 410.140625 628.714844 C 410.140625 620.507812 424.101562 612.144531 438.296875 604.855469 C 439.292969 607.3125 445.816406 621.199219 463.539062 625.800781 C 461.390625 629.714844 458.167969 634.394531 453.410156 638.535156 Z M 524.835938 608.691406 C 515.554688 606.773438 503.507812 608.308594 491.769531 609.84375 C 482.488281 611.070312 472.820312 612.296875 467.988281 611.148438 C 456.25 608.460938 452.488281 599.257812 452.414062 598.949219 C 452.257812 598.566406 452.03125 598.335938 451.800781 597.953125 C 463.382812 592.121094 473.894531 586.445312 480.109375 579.691406 C 486.9375 572.25 489.390625 563.8125 489.46875 555.910156 C 494.53125 558.824219 500.441406 560.820312 507.113281 560.820312 C 509.648438 560.820312 512.253906 560.511719 515.015625 559.976562 C 525.222656 557.75 536.730469 549.925781 549.003906 541.714844 C 549.617188 541.253906 550.308594 540.871094 550.921875 540.410156 C 551 540.488281 551.074219 540.640625 551.152344 540.796875 C 551.230469 540.871094 558.746094 549.542969 555.296875 560.894531 C 553.835938 565.730469 547.929688 573.554688 542.175781 581.148438 C 535.117188 590.433594 527.984375 599.945312 524.914062 608.769531 Z M 628.410156 501.898438 C 626.722656 513.636719 625.035156 525.527344 626.644531 534.8125 C 617.667969 537.957031 608.078125 545.628906 598.640625 553.148438 C 591.199219 559.054688 583.527344 565.191406 578.847656 566.726562 C 574.78125 568.109375 571.328125 568.644531 568.492188 568.875 C 569.027344 567.722656 569.640625 566.496094 569.949219 565.34375 C 574.9375 549.15625 567.1875 536.5 563.8125 532.125 C 575.089844 525.296875 586.136719 520.234375 592.351562 523.839844 C 596.035156 525.988281 600.714844 524.683594 602.863281 521 C 603.859375 519.238281 604.167969 517.164062 603.628906 515.171875 C 603.09375 513.175781 601.789062 511.488281 600.023438 510.492188 C 593.273438 506.578125 592.734375 491.617188 593.347656 476.503906 C 593.730469 476.503906 595.191406 476.808594 597.414062 476.808594 C 603.550781 476.808594 615.289062 475.199219 625.339844 464.535156 C 627.257812 468.140625 629.175781 472.589844 630.175781 477.730469 C 631.171875 482.640625 629.714844 492.460938 628.410156 501.972656 Z M 624.957031 432.621094 C 623.347656 436.378906 621.8125 440.214844 620.199219 443.667969 C 619.816406 443.898438 619.355469 444.050781 619.050781 444.433594 C 617.4375 446.046875 616.75 448.195312 616.824219 450.265625 C 615.902344 451.722656 615.058594 453.027344 614.214844 453.949219 C 606.007812 462.769531 596.1875 461.390625 595.878906 461.390625 C 595.34375 461.3125 594.730469 461.390625 594.191406 461.390625 C 595.035156 447.578125 595.648438 434.691406 592.65625 425.40625 C 589.589844 415.664062 583.375 409.449219 576.546875 405.460938 C 583.527344 401.472656 589.820312 395.179688 592.964844 385.28125 C 596.109375 375.386719 595.191406 361.421875 594.117188 346.769531 C 594.269531 346.769531 594.5 346.769531 594.652344 346.769531 C 595.113281 346.691406 606.085938 344.542969 614.140625 353.214844 C 617.59375 356.894531 621.429688 365.949219 625.109375 374.695312 C 629.636719 385.4375 634.242188 396.40625 640.378906 403.464844 C 634.085938 410.601562 629.40625 421.726562 624.878906 432.695312 Z M 624.957031 432.621094 " fill-opacity="1" fill-rule="nonzero"/></g></svg>