<svg xmlns="http://www.w3.org/2000/svg" xmlns:xlink="http://www.w3.org/1999/xlink" width="1080" zoomAndPan="magnify" viewBox="0 0 810 809.999993" height="1080" preserveAspectRatio="xMidYMid meet" version="1.0"><path fill="#bb2b27" d="M 401.9375 505.332031 L 494.324219 339.535156 L 309.457031 339.535156 L 401.839844 505.332031 Z M 401.9375 465.414062 L 342.582031 358.960938 L 461.292969 358.960938 Z M 678.410156 469.976562 C 677.050781 435.5 651.792969 416.460938 631.390625 408.109375 C 646.160156 402.378906 657.039062 393.734375 663.742188 382.371094 C 681.421875 352.257812 667.628906 309.523438 654.320312 268.246094 C 642.46875 231.433594 630.128906 193.261719 645.285156 174.808594 C 648.394531 170.921875 648.101562 165.289062 644.605469 161.792969 C 641.011719 158.199219 635.375 157.90625 631.488281 161.113281 C 612.644531 176.847656 574.273438 164.316406 537.261719 152.175781 C 496.363281 138.773438 454.105469 124.980469 424.183594 142.464844 C 414.664062 148 407.085938 156.449219 401.453125 167.71875 C 391.347656 150.039062 373.28125 132.265625 344.527344 131.101562 C 324.804688 130.324219 298.867188 139.355469 271.472656 148.875 C 233.199219 162.179688 189.777344 177.332031 172.773438 160.335938 C 168.988281 156.546875 162.769531 156.644531 158.980469 160.335938 C 157.136719 162.179688 156.164062 164.609375 156.164062 167.230469 C 156.164062 169.855469 157.230469 172.28125 158.980469 174.128906 C 175.300781 190.445312 160.4375 233.859375 147.421875 272.128906 C 137.902344 300.003906 128.964844 326.230469 129.644531 345.945312 C 131.003906 380.621094 156.648438 399.753906 177.050781 408.011719 C 156.648438 416.167969 131.003906 435.304688 129.644531 469.976562 C 128.867188 489.695312 137.804688 515.917969 147.324219 543.699219 C 160.4375 581.964844 175.203125 625.382812 158.882812 641.699219 C 157.039062 643.546875 156.066406 646.070312 156.066406 648.597656 C 156.066406 651.21875 157.136719 653.648438 158.980469 655.492188 C 162.769531 659.28125 168.890625 659.28125 172.679688 655.492188 C 189.679688 638.496094 233.101562 653.550781 271.375 666.953125 C 297.703125 676.082031 322.667969 684.824219 342 684.824219 C 342.777344 684.824219 343.652344 684.824219 344.429688 684.824219 C 376 683.5625 394.652344 662.292969 403.882812 643.058594 C 413.207031 662.292969 431.859375 683.5625 463.332031 684.824219 C 464.109375 684.824219 464.984375 684.824219 465.761719 684.824219 C 485.191406 684.824219 510.449219 676.179688 537.066406 667.148438 C 575.339844 654.035156 618.765625 639.273438 635.085938 655.589844 C 636.929688 657.433594 639.550781 658.792969 641.980469 658.40625 C 644.605469 658.40625 647.128906 657.335938 648.878906 655.492188 C 652.570312 651.703125 652.570312 645.585938 648.878906 641.796875 C 631.878906 624.800781 646.9375 581.382812 660.339844 543.117188 C 669.863281 515.628906 678.894531 489.792969 678.117188 470.074219 Z M 433.800781 159.363281 C 456.242188 146.347656 494.226562 158.78125 531.042969 170.824219 C 562.226562 181.023438 594.1875 191.417969 619.636719 187.046875 C 615.65625 212.105469 625.855469 243.671875 635.667969 274.363281 C 647.710938 311.5625 660.050781 350.121094 646.839844 372.65625 C 641.785156 381.300781 632.851562 387.515625 619.929688 391.695312 C 612.933594 281.746094 524.4375 193.746094 414.277344 187.433594 C 418.453125 173.835938 424.765625 164.609375 433.703125 159.363281 Z M 401.839844 604.695312 C 353.171875 604.695312 308.484375 587.113281 273.902344 557.976562 L 529.78125 557.976562 C 495.097656 587.113281 450.511719 604.695312 401.839844 604.695312 Z M 401.839844 206.375 C 450.511719 206.375 495.195312 223.953125 529.78125 253.09375 L 274 253.09375 C 308.679688 223.953125 353.269531 206.375 401.9375 206.375 Z M 268.851562 272.519531 L 534.832031 272.519531 L 534.832031 538.453125 L 268.949219 538.453125 L 268.949219 272.613281 Z M 249.421875 533.402344 C 220.277344 498.726562 202.695312 454.148438 202.695312 405.484375 C 202.695312 356.824219 220.277344 312.144531 249.421875 277.570312 Z M 554.355469 277.570312 C 583.5 312.242188 601.082031 356.824219 601.082031 405.484375 C 601.082031 454.148438 583.5 498.824219 554.355469 533.402344 Z M 149.070312 345.167969 C 148.488281 329.046875 157.230469 303.308594 165.683594 278.441406 C 176.855469 245.710938 188.316406 212.105469 184.820312 186.558594 C 210.757812 190.542969 244.660156 178.789062 277.789062 167.230469 C 302.269531 158.683594 327.71875 149.847656 343.652344 150.527344 C 371.824219 151.59375 384.257812 174.613281 388.921875 187.335938 C 279.730469 193.746094 191.816406 280.773438 183.945312 389.652344 C 170.929688 384.410156 150.140625 371.878906 149.070312 345.167969 Z M 343.75 665.398438 C 327.71875 666.078125 302.367188 657.242188 277.886719 648.691406 C 244.757812 637.136719 210.855469 625.382812 184.917969 629.363281 C 188.414062 603.820312 176.953125 570.3125 165.78125 537.480469 C 157.328125 512.617188 148.488281 486.878906 149.167969 470.753906 C 150.238281 443.753906 171.414062 431.222656 184.335938 426.078125 C 194.4375 533.304688 282.160156 618.292969 390.667969 623.828125 C 387.5625 634.222656 376 664.136719 343.847656 665.398438 Z M 642.175781 536.703125 C 630.617188 569.824219 618.859375 603.722656 622.84375 629.65625 C 597.296875 626.160156 563.78125 637.621094 530.945312 648.789062 C 506.078125 657.242188 480.332031 666.078125 464.207031 665.398438 C 431.664062 664.136719 420.203125 633.636719 417.285156 623.539062 C 524.339844 616.058594 610.410156 531.167969 619.636719 424.621094 C 631.585938 428.601562 657.71875 440.644531 658.882812 470.753906 C 659.46875 486.78125 650.722656 512.132812 642.175781 536.609375 Z M 642.175781 536.703125 " fill-opacity="1" fill-rule="nonzero"/></svg>