<svg xmlns="http://www.w3.org/2000/svg" xmlns:xlink="http://www.w3.org/1999/xlink" width="1080" zoomAndPan="magnify" viewBox="0 0 810 809.999993" height="1080" preserveAspectRatio="xMidYMid meet" version="1.0"><defs><clipPath id="a6da83313f"><path d="M 123.75 123.75 L 686.25 123.75 L 686.25 686 L 123.75 686 Z M 123.75 123.75 " clip-rule="nonzero"/></clipPath></defs><g clip-path="url(#a6da83313f)"><path fill="#438940" d="M 677.136719 395.800781 C 667.5 395.800781 658.914062 384.496094 650.503906 373.632812 C 643.929688 365.046875 637.796875 356.984375 630 352.34375 C 625.96875 349.976562 621.765625 348.488281 617.644531 347.609375 C 620.710938 344.808594 623.605469 341.476562 625.882812 337.449219 C 630.261719 329.5625 631.488281 319.484375 632.804688 308.882812 C 634.46875 295.304688 636.132812 281.199219 644.894531 276.117188 C 646.910156 274.976562 648.398438 273.050781 649.011719 270.769531 C 649.625 268.492188 649.277344 266.128906 648.136719 264.113281 C 645.683594 259.90625 640.339844 258.503906 636.222656 260.957031 C 627.898438 265.777344 614.753906 260.34375 602.050781 255 C 592.0625 250.882812 582.6875 246.9375 573.574219 246.765625 C 568.753906 246.765625 564.375 247.640625 560.257812 249.042969 C 561.570312 245.011719 562.535156 240.628906 562.449219 235.898438 C 562.359375 226.875 558.328125 217.585938 554.210938 207.773438 C 548.867188 195.15625 543.257812 182.101562 548.339844 173.339844 C 549.480469 171.324219 549.832031 168.871094 549.21875 166.59375 C 548.605469 164.316406 547.113281 162.390625 545.011719 161.25 C 540.804688 158.882812 535.550781 160.375 533.183594 164.492188 C 528.363281 172.816406 514.257812 174.65625 500.675781 176.40625 C 489.988281 177.808594 479.824219 179.125 471.9375 183.503906 C 467.820312 185.78125 464.492188 188.675781 461.601562 191.828125 C 460.722656 187.710938 459.234375 183.59375 456.871094 179.648438 C 452.226562 171.851562 444.164062 165.804688 435.664062 159.410156 C 424.714844 151.175781 413.410156 142.675781 413.410156 132.597656 C 413.410156 127.78125 409.46875 123.835938 404.648438 123.835938 C 399.832031 123.835938 395.886719 127.78125 395.886719 132.597656 C 395.886719 142.238281 384.585938 150.824219 373.722656 159.148438 C 365.132812 165.71875 357.074219 171.851562 352.429688 179.648438 C 350.0625 183.679688 348.574219 187.886719 347.699219 192.003906 C 344.894531 188.9375 341.566406 186.046875 337.535156 183.765625 C 329.648438 179.386719 319.574219 178.160156 308.972656 176.847656 C 295.390625 175.179688 281.285156 173.515625 276.203125 164.753906 C 275.0625 162.738281 273.050781 161.25 270.769531 160.636719 C 268.492188 160.023438 266.039062 160.375 264.023438 161.601562 C 259.90625 164.054688 258.59375 169.398438 260.957031 173.515625 C 265.777344 181.839844 260.34375 194.984375 255 207.6875 C 250.882812 217.675781 246.9375 227.050781 246.765625 236.164062 C 246.765625 240.980469 247.640625 245.449219 249.042969 249.566406 C 245.011719 248.253906 240.628906 247.203125 235.898438 247.289062 C 226.875 247.378906 217.585938 251.40625 207.773438 255.527344 C 195.15625 260.871094 182.101562 266.476562 173.339844 261.394531 C 169.136719 258.941406 163.789062 260.433594 161.335938 264.550781 C 160.199219 266.566406 159.847656 268.929688 160.460938 271.210938 C 161.074219 273.488281 162.5625 275.414062 164.578125 276.554688 C 172.902344 281.371094 174.742188 295.480469 176.496094 309.058594 C 177.898438 319.75 179.210938 329.914062 183.59375 337.796875 C 185.871094 341.914062 188.761719 345.246094 191.914062 348.136719 C 187.796875 349.011719 183.679688 350.503906 179.738281 352.867188 C 171.9375 357.511719 165.894531 365.574219 159.496094 374.070312 C 151.261719 385.023438 142.761719 396.324219 132.597656 396.324219 C 127.78125 396.324219 123.835938 400.269531 123.835938 405.085938 C 123.835938 409.90625 127.78125 413.847656 132.597656 413.847656 C 142.238281 413.847656 150.824219 425.152344 159.234375 436.015625 C 165.804688 444.601562 171.9375 452.664062 179.738281 457.308594 C 183.765625 459.671875 187.972656 461.164062 192.089844 462.039062 C 188.9375 464.84375 186.132812 468.171875 183.855469 472.289062 C 179.386719 480.175781 178.246094 490.25 176.933594 500.851562 C 175.269531 514.433594 173.605469 528.539062 164.84375 533.621094 C 162.828125 534.761719 161.335938 536.6875 160.722656 538.964844 C 160.109375 541.246094 160.460938 543.609375 161.601562 545.625 C 164.054688 549.832031 169.398438 551.234375 173.515625 548.777344 C 181.839844 543.960938 194.984375 549.390625 207.6875 554.738281 C 217.675781 558.855469 227.050781 562.796875 236.164062 562.972656 C 236.335938 562.972656 236.511719 562.972656 236.6875 562.972656 C 241.332031 562.972656 245.539062 562.007812 249.480469 560.695312 C 248.164062 564.726562 247.203125 569.105469 247.289062 573.835938 C 247.378906 582.863281 251.40625 592.148438 255.527344 601.960938 C 260.871094 614.578125 266.476562 627.632812 261.394531 636.394531 C 260.257812 638.410156 259.90625 640.863281 260.519531 643.140625 C 261.132812 645.421875 262.621094 647.347656 264.726562 648.488281 C 266.039062 649.277344 267.527344 649.625 269.019531 649.625 C 272.085938 649.625 274.976562 648.050781 276.640625 645.246094 C 281.460938 636.921875 295.566406 635.082031 309.148438 633.328125 C 319.835938 631.925781 330 630.613281 337.886719 626.234375 C 342.003906 623.953125 345.332031 621.0625 348.222656 617.910156 C 349.101562 622.027344 350.589844 626.144531 352.957031 630.085938 C 357.597656 637.886719 365.660156 643.929688 374.160156 650.328125 C 385.109375 658.5625 396.414062 667.0625 396.414062 677.226562 C 396.414062 682.042969 400.355469 685.988281 405.175781 685.988281 C 409.996094 685.988281 413.9375 682.042969 413.9375 677.226562 C 413.9375 667.585938 425.238281 659 436.105469 650.589844 C 444.691406 644.019531 452.75 637.886719 457.394531 630.085938 C 459.761719 626.058594 461.25 621.851562 462.125 617.734375 C 464.929688 620.800781 468.257812 623.691406 472.289062 625.96875 C 480.175781 630.4375 490.25 631.578125 500.851562 632.890625 C 514.433594 634.554688 528.539062 636.222656 533.621094 644.984375 C 535.199219 647.785156 538.175781 649.363281 541.246094 649.363281 C 542.734375 649.363281 544.136719 649.011719 545.539062 648.222656 C 547.550781 647.085938 549.042969 645.15625 549.742188 642.878906 C 550.445312 640.601562 550.09375 638.234375 548.867188 636.132812 C 544.046875 627.808594 549.480469 614.667969 554.824219 601.960938 C 558.941406 591.972656 562.886719 582.597656 563.0625 573.488281 C 563.0625 568.667969 562.183594 564.289062 560.78125 560.167969 C 564.726562 561.484375 568.84375 562.449219 573.398438 562.449219 C 573.574219 562.449219 573.75 562.449219 573.925781 562.449219 C 582.949219 562.359375 592.238281 558.328125 602.050781 554.210938 C 614.667969 548.867188 627.722656 543.257812 636.484375 548.339844 C 640.6875 550.707031 646.035156 549.304688 648.488281 545.097656 C 649.625 543.085938 649.976562 540.71875 649.363281 538.441406 C 648.75 536.164062 647.261719 534.234375 645.246094 533.097656 C 636.921875 528.277344 635.082031 514.171875 633.328125 500.589844 C 631.925781 489.902344 630.613281 479.738281 626.234375 471.851562 C 623.953125 467.734375 621.0625 464.402344 617.910156 461.511719 C 622.027344 460.636719 626.144531 459.148438 630.175781 456.78125 C 637.972656 452.136719 644.019531 444.078125 650.414062 435.578125 C 658.652344 424.625 667.148438 413.324219 677.3125 413.324219 C 682.132812 413.324219 686.074219 409.378906 686.074219 404.5625 C 686.074219 399.742188 682.132812 395.800781 677.3125 395.800781 Z M 412.097656 583.824219 L 456.429688 504.269531 L 554.125 504.269531 C 523.109375 550.53125 471.238281 581.371094 412.097656 583.824219 Z M 255.4375 504.269531 L 353.128906 504.269531 L 397.464844 583.824219 C 338.324219 581.460938 286.453125 550.53125 255.4375 504.269531 Z M 225.121094 404.5625 C 225.121094 372.496094 233.621094 342.527344 248.429688 316.417969 L 297.667969 404.738281 L 248.515625 492.878906 C 233.710938 466.769531 225.121094 436.628906 225.121094 404.5625 Z M 397.726562 225.210938 L 353.21875 305.117188 L 255.261719 305.117188 C 286.277344 258.59375 338.324219 227.488281 397.726562 225.210938 Z M 554.386719 305.117188 L 456.519531 305.117188 L 412.007812 225.210938 C 471.414062 227.574219 523.457031 258.679688 554.472656 305.117188 Z M 446.179688 486.660156 L 363.46875 486.660156 L 317.734375 404.648438 L 363.46875 322.640625 L 446.179688 322.640625 L 491.914062 404.648438 Z M 501.902344 422.609375 L 537.5625 486.660156 L 466.15625 486.660156 L 501.816406 422.609375 Z M 373.195312 504.183594 L 436.367188 504.183594 L 404.738281 560.871094 L 373.109375 504.183594 Z M 343.40625 486.660156 L 271.996094 486.660156 L 307.65625 422.609375 L 343.316406 486.660156 Z M 307.746094 386.601562 L 272.085938 322.550781 L 343.492188 322.550781 L 307.832031 386.601562 Z M 404.824219 248.339844 L 436.453125 305.027344 L 373.28125 305.027344 L 404.914062 248.339844 Z M 466.246094 322.550781 L 537.652344 322.550781 L 501.992188 386.601562 L 466.332031 322.550781 Z M 561.132812 492.703125 L 511.980469 404.5625 L 561.222656 316.246094 C 575.941406 342.355469 584.527344 372.320312 584.527344 404.386719 C 584.527344 436.453125 575.941406 466.59375 561.132812 492.703125 Z M 595.304688 270.945312 C 603.453125 274.363281 612.214844 278.042969 620.976562 279.445312 C 617.734375 287.945312 616.59375 297.496094 615.457031 306.519531 C 614.402344 314.929688 613.351562 323.691406 610.636719 328.597656 C 606.34375 336.308594 597.84375 340.164062 591.886719 342.003906 C 583.386719 316.507812 569.808594 293.289062 552.285156 273.664062 C 556.925781 269.457031 564.550781 263.9375 573.398438 264.023438 C 579.09375 264.023438 587.332031 267.527344 595.304688 270.859375 Z M 480.527344 198.664062 C 485.519531 195.859375 494.371094 194.71875 502.957031 193.667969 C 511.71875 192.527344 521.179688 191.300781 529.414062 188.234375 C 530.816406 197.171875 534.671875 206.109375 538.175781 214.433594 C 541.507812 222.230469 544.925781 230.378906 545.011719 235.988281 C 545.097656 244.835938 539.753906 252.371094 535.460938 257.015625 C 515.746094 239.578125 492.527344 226 467.03125 217.414062 C 468.871094 211.453125 472.816406 203.042969 480.4375 198.75 Z M 367.414062 188.410156 C 370.304688 183.503906 377.402344 178.074219 384.324219 172.816406 C 391.332031 167.472656 398.867188 161.6875 404.5625 154.855469 C 410.257812 161.863281 418.054688 167.734375 425.238281 173.164062 C 432.074219 178.246094 439.082031 183.59375 441.972656 188.410156 C 446.441406 195.859375 445.652344 205.058594 444.253906 211.105469 C 431.546875 208.5625 418.40625 207.160156 404.914062 207.160156 C 391.417969 207.160156 378.015625 208.5625 365.132812 211.191406 C 363.820312 205.058594 362.945312 195.859375 367.414062 188.410156 Z M 271.210938 214.257812 C 274.625 206.109375 278.304688 197.347656 279.707031 188.585938 C 288.207031 191.828125 297.757812 192.96875 306.78125 194.105469 C 315.191406 195.15625 323.953125 196.210938 328.859375 198.925781 C 336.484375 203.21875 340.339844 211.542969 342.265625 217.5 C 316.769531 226.085938 293.550781 239.667969 273.925781 257.191406 C 269.71875 252.632812 264.289062 244.925781 264.375 236.164062 C 264.375 230.46875 267.878906 222.230469 271.210938 214.257812 Z M 188.5 280.144531 C 197.4375 278.746094 206.371094 274.890625 214.695312 271.382812 C 222.496094 268.054688 230.644531 264.636719 236.25 264.550781 C 245.011719 264.550781 252.632812 269.894531 257.191406 274.101562 C 239.753906 293.8125 226.261719 317.03125 217.761719 342.527344 C 211.804688 340.6875 203.21875 336.746094 198.925781 329.035156 C 196.121094 324.042969 194.984375 315.191406 193.929688 306.605469 C 192.792969 297.84375 191.566406 288.382812 188.5 280.144531 Z M 173.164062 425.328125 C 167.820312 418.316406 162.039062 410.78125 155.203125 405.085938 C 162.214844 399.390625 168.085938 391.59375 173.515625 384.410156 C 178.597656 377.574219 183.941406 370.566406 188.761719 367.675781 C 196.296875 363.207031 205.585938 364.082031 211.71875 365.398438 C 209.175781 378.015625 207.863281 390.980469 207.863281 404.386719 C 207.863281 417.792969 209.265625 431.460938 211.980469 444.425781 C 205.933594 445.828125 196.472656 446.792969 188.847656 442.238281 C 183.941406 439.347656 178.511719 432.25 173.253906 425.328125 Z M 236.425781 545.363281 C 230.730469 545.363281 222.496094 541.859375 214.519531 538.527344 C 206.371094 535.109375 197.609375 531.429688 188.847656 530.027344 C 192.089844 521.53125 193.230469 511.980469 194.371094 502.957031 C 195.421875 494.542969 196.472656 485.78125 199.1875 480.875 C 203.570312 473.078125 212.15625 469.222656 218.113281 467.382812 C 226.699219 492.878906 240.367188 516.011719 257.804688 535.636719 C 253.246094 539.929688 245.539062 545.625 236.425781 545.449219 Z M 329.300781 610.8125 C 324.304688 613.617188 315.457031 614.753906 306.871094 615.804688 C 298.109375 616.945312 288.644531 618.171875 280.410156 621.238281 C 279.007812 612.300781 275.152344 603.363281 271.648438 595.039062 C 268.316406 587.242188 264.902344 579.09375 264.8125 573.488281 C 264.726562 564.460938 270.332031 556.753906 274.625 552.195312 C 294.339844 569.542969 317.472656 583.125 342.96875 591.535156 C 341.128906 597.496094 337.273438 606.34375 329.386719 610.722656 Z M 442.414062 621.0625 C 439.519531 625.96875 432.425781 631.402344 425.503906 636.660156 C 418.492188 642.003906 410.957031 647.785156 405.261719 654.621094 C 399.566406 647.609375 391.769531 641.742188 384.585938 636.308594 C 377.75 631.226562 370.742188 625.882812 367.851562 621.0625 C 363.292969 613.351562 364.257812 603.890625 365.660156 597.757812 C 378.363281 600.296875 391.417969 601.699219 404.824219 601.699219 C 418.230469 601.699219 431.722656 600.296875 444.515625 597.667969 C 445.917969 603.714844 446.96875 613.265625 442.324219 621.0625 Z M 538.617188 595.214844 C 535.199219 603.363281 531.519531 612.125 530.117188 620.886719 C 521.617188 617.644531 512.066406 616.507812 503.042969 615.367188 C 494.632812 614.316406 485.871094 613.265625 480.964844 610.550781 C 473.078125 606.167969 469.222656 597.40625 467.382812 591.449219 C 492.792969 582.949219 515.921875 569.371094 535.636719 551.933594 C 539.929688 556.488281 545.625 564.289062 545.539062 573.3125 C 545.539062 579.007812 542.03125 587.242188 538.703125 595.214844 Z M 621.324219 529.328125 C 612.390625 530.730469 603.453125 534.585938 595.128906 538.089844 C 587.332031 541.417969 579.183594 544.835938 573.574219 544.925781 C 564.636719 544.925781 556.839844 539.316406 552.285156 535.109375 C 569.71875 515.484375 583.300781 492.265625 591.800781 466.859375 C 597.757812 468.699219 606.519531 472.550781 610.898438 480.4375 C 613.703125 485.433594 614.84375 494.28125 615.894531 502.867188 C 617.03125 511.628906 618.257812 521.09375 621.324219 529.328125 Z M 636.308594 425.0625 C 631.226562 431.898438 625.882812 438.90625 621.0625 441.800781 C 613.441406 446.355469 604.066406 445.390625 598.019531 444.078125 C 600.648438 431.285156 601.960938 418.054688 601.960938 404.5625 C 601.960938 391.070312 600.5625 377.839844 598.019531 365.046875 C 604.152344 363.644531 613.441406 362.769531 621.0625 367.324219 C 625.96875 370.214844 631.402344 377.3125 636.570312 384.234375 C 641.914062 391.242188 647.699219 398.777344 654.53125 404.472656 C 647.523438 410.167969 641.652344 417.96875 636.222656 425.152344 Z M 636.308594 425.0625 " fill-opacity="1" fill-rule="nonzero"/></g></svg>