<svg xmlns="http://www.w3.org/2000/svg" xmlns:xlink="http://www.w3.org/1999/xlink" width="1080" zoomAndPan="magnify" viewBox="0 0 810 809.999993" height="1080" preserveAspectRatio="xMidYMid meet" version="1.0"><defs><clipPath id="e23c7a4d3d"><path d="M 0.0390625 1.375 L 326 1.375 L 326 182.863281 L 0.0390625 182.863281 Z M 0.0390625 1.375 " clip-rule="nonzero"/></clipPath><clipPath id="a4a9963f3d"><path d="M 95.480469 24.921875 L 229.394531 24.921875 L 229.394531 158.832031 L 95.480469 158.832031 Z M 95.480469 24.921875 " clip-rule="nonzero"/></clipPath><clipPath id="6aff551d0a"><path d="M 170.175781 60.890625 L 232.726562 60.890625 L 232.726562 123.441406 L 170.175781 123.441406 Z M 170.175781 60.890625 " clip-rule="nonzero"/></clipPath><clipPath id="540efb36ff"><path d="M 378 0.839844 L 703.960938 0.839844 L 703.960938 182.328125 L 378 182.328125 Z M 378 0.839844 " clip-rule="nonzero"/></clipPath><clipPath id="520c2f59b2"><path d="M 473.828125 24.386719 L 607.738281 24.386719 L 607.738281 158.300781 L 473.828125 158.300781 Z M 473.828125 24.386719 " clip-rule="nonzero"/></clipPath><clipPath id="1f7d1473ce"><path d="M 470 60.890625 L 532.550781 60.890625 L 532.550781 123.441406 L 470 123.441406 Z M 470 60.890625 " clip-rule="nonzero"/></clipPath><clipPath id="91499f952d"><rect x="0" width="704" y="0" height="184"/></clipPath></defs><g transform="matrix(1, 0, 0, 1, 53, 313)"><g clip-path="url(#91499f952d)"><path fill="#c2873f" d="M 162.816406 62.316406 C 146.308594 62.316406 132.878906 75.746094 132.878906 92.253906 C 132.878906 108.777344 146.308594 122.21875 162.816406 122.21875 C 179.335938 122.21875 192.777344 108.777344 192.777344 92.253906 C 192.777344 75.746094 179.335938 62.316406 162.816406 62.316406 " fill-opacity="1" fill-rule="nonzero"/><g clip-path="url(#e23c7a4d3d)"><path fill="#c2873f" d="M 305.703125 94.152344 C 303.59375 96.53125 263.375 141.265625 208.550781 159.753906 C 229.714844 145.140625 243.613281 120.71875 243.613281 93.109375 C 243.613281 63.238281 227.351562 37.097656 203.210938 23.074219 C 260.746094 40.339844 303.527344 87.917969 305.707031 90.378906 L 307.382812 92.261719 Z M 19.9375 94.152344 L 18.261719 92.261719 L 19.914062 90.398438 C 22.097656 87.957031 64.761719 40.898438 121.625 23.375 C 97.773438 37.472656 81.734375 63.453125 81.734375 93.109375 C 81.734375 120.558594 95.472656 144.855469 116.429688 159.496094 C 62.03125 140.855469 22.035156 96.515625 19.9375 94.152344 Z M 162.671875 158.554688 C 126.585938 158.554688 97.226562 129.199219 97.226562 93.109375 C 97.226562 57.019531 126.585938 27.65625 162.671875 27.65625 C 198.765625 27.65625 228.121094 57.019531 228.121094 93.109375 C 228.121094 129.199219 198.765625 158.554688 162.671875 158.554688 Z M 323.535156 87.121094 L 317.296875 80.09375 C 314.445312 76.878906 246.546875 1.378906 162.824219 1.378906 C 127.796875 1.378906 91.527344 14.257812 55.015625 39.65625 C 27.996094 58.449219 10.296875 77.914062 8.34375 80.09375 L 2.109375 87.125 C -0.488281 90.058594 -0.488281 94.46875 2.109375 97.402344 L 8.355469 104.441406 C 10.261719 106.585938 27.765625 125.933594 54.988281 144.871094 C 91.492188 170.269531 127.773438 183.144531 162.824219 183.144531 C 246.546875 183.144531 314.445312 107.644531 317.289062 104.4375 L 323.535156 97.40625 C 326.140625 94.472656 326.140625 90.054688 323.535156 87.121094 " fill-opacity="1" fill-rule="nonzero"/></g><g clip-path="url(#a4a9963f3d)"><path fill="#f6e3b4" d="M 229.105469 91.734375 C 229.105469 92.824219 229.078125 93.917969 229.023438 95.011719 C 228.96875 96.101562 228.890625 97.191406 228.78125 98.28125 C 228.675781 99.371094 228.542969 100.453125 228.382812 101.535156 C 228.222656 102.617188 228.035156 103.695312 227.820312 104.765625 C 227.609375 105.839844 227.367188 106.90625 227.101562 107.964844 C 226.835938 109.027344 226.546875 110.082031 226.226562 111.128906 C 225.910156 112.171875 225.566406 113.210938 225.199219 114.242188 C 224.832031 115.269531 224.4375 116.289062 224.019531 117.300781 C 223.601562 118.3125 223.15625 119.308594 222.691406 120.296875 C 222.222656 121.285156 221.730469 122.261719 221.214844 123.226562 C 220.699219 124.191406 220.160156 125.144531 219.597656 126.082031 C 219.035156 127.019531 218.453125 127.941406 217.84375 128.851562 C 217.238281 129.761719 216.609375 130.652344 215.957031 131.53125 C 215.304688 132.410156 214.632812 133.273438 213.9375 134.117188 C 213.246094 134.960938 212.53125 135.789062 211.796875 136.601562 C 211.0625 137.410156 210.308594 138.203125 209.535156 138.976562 C 208.761719 139.75 207.972656 140.503906 207.160156 141.238281 C 206.351562 141.972656 205.523438 142.683594 204.679688 143.378906 C 203.832031 144.074219 202.972656 144.746094 202.09375 145.394531 C 201.214844 146.046875 200.320312 146.675781 199.410156 147.285156 C 198.503906 147.890625 197.578125 148.476562 196.640625 149.039062 C 195.703125 149.601562 194.753906 150.140625 193.789062 150.65625 C 192.824219 151.171875 191.847656 151.664062 190.859375 152.128906 C 189.871094 152.597656 188.871094 153.039062 187.859375 153.457031 C 186.851562 153.878906 185.832031 154.269531 184.800781 154.640625 C 183.773438 155.007812 182.734375 155.351562 181.6875 155.667969 C 180.640625 155.984375 179.585938 156.277344 178.527344 156.542969 C 177.464844 156.808594 176.398438 157.046875 175.328125 157.261719 C 174.253906 157.472656 173.179688 157.660156 172.097656 157.820312 C 171.015625 157.980469 169.929688 158.117188 168.839844 158.222656 C 167.753906 158.328125 166.664062 158.410156 165.570312 158.464844 C 164.480469 158.515625 163.386719 158.542969 162.292969 158.542969 C 161.199219 158.542969 160.105469 158.515625 159.015625 158.464844 C 157.921875 158.410156 156.832031 158.328125 155.746094 158.222656 C 154.65625 158.117188 153.570312 157.980469 152.488281 157.820312 C 151.40625 157.660156 150.332031 157.472656 149.257812 157.261719 C 148.1875 157.046875 147.121094 156.808594 146.058594 156.542969 C 145 156.277344 143.945312 155.984375 142.898438 155.667969 C 141.851562 155.351562 140.8125 155.007812 139.785156 154.640625 C 138.753906 154.269531 137.734375 153.878906 136.726562 153.457031 C 135.714844 153.039062 134.714844 152.597656 133.726562 152.128906 C 132.738281 151.664062 131.761719 151.171875 130.796875 150.65625 C 129.832031 150.140625 128.882812 149.601562 127.945312 149.039062 C 127.007812 148.476562 126.082031 147.890625 125.175781 147.285156 C 124.265625 146.675781 123.371094 146.046875 122.492188 145.394531 C 121.613281 144.746094 120.753906 144.074219 119.90625 143.378906 C 119.0625 142.683594 118.234375 141.972656 117.425781 141.238281 C 116.613281 140.503906 115.824219 139.75 115.050781 138.976562 C 114.277344 138.203125 113.523438 137.410156 112.789062 136.601562 C 112.054688 135.789062 111.339844 134.960938 110.648438 134.117188 C 109.953125 133.273438 109.28125 132.410156 108.628906 131.53125 C 107.976562 130.652344 107.347656 129.761719 106.742188 128.851562 C 106.132812 127.941406 105.546875 127.019531 104.988281 126.082031 C 104.425781 125.144531 103.886719 124.191406 103.371094 123.226562 C 102.855469 122.261719 102.363281 121.285156 101.894531 120.296875 C 101.429688 119.308594 100.984375 118.3125 100.566406 117.300781 C 100.148438 116.289062 99.753906 115.269531 99.386719 114.242188 C 99.019531 113.210938 98.675781 112.171875 98.359375 111.128906 C 98.039062 110.082031 97.75 109.027344 97.484375 107.964844 C 97.21875 106.90625 96.976562 105.839844 96.765625 104.765625 C 96.550781 103.695312 96.363281 102.617188 96.203125 101.535156 C 96.042969 100.453125 95.910156 99.371094 95.804688 98.28125 C 95.695312 97.191406 95.617188 96.101562 95.5625 95.011719 C 95.507812 93.917969 95.480469 92.824219 95.480469 91.734375 C 95.480469 90.640625 95.507812 89.546875 95.5625 88.453125 C 95.617188 87.363281 95.695312 86.273438 95.804688 85.183594 C 95.910156 84.097656 96.042969 83.011719 96.203125 81.929688 C 96.363281 80.847656 96.550781 79.769531 96.765625 78.699219 C 96.976562 77.625 97.21875 76.558594 97.484375 75.5 C 97.75 74.4375 98.039062 73.382812 98.359375 72.339844 C 98.675781 71.292969 99.019531 70.253906 99.386719 69.222656 C 99.753906 68.195312 100.148438 67.175781 100.566406 66.164062 C 100.984375 65.15625 101.429688 64.15625 101.894531 63.167969 C 102.363281 62.179688 102.855469 61.203125 103.371094 60.238281 C 103.886719 59.273438 104.425781 58.324219 104.988281 57.382812 C 105.546875 56.445312 106.132812 55.523438 106.742188 54.613281 C 107.347656 53.703125 107.976562 52.8125 108.628906 51.933594 C 109.28125 51.054688 109.953125 50.191406 110.648438 49.347656 C 111.339844 48.503906 112.054688 47.675781 112.789062 46.863281 C 113.523438 46.054688 114.277344 45.261719 115.050781 44.488281 C 115.824219 43.714844 116.613281 42.960938 117.425781 42.230469 C 118.234375 41.496094 119.0625 40.78125 119.90625 40.085938 C 120.753906 39.394531 121.613281 38.71875 122.492188 38.070312 C 123.371094 37.417969 124.265625 36.789062 125.175781 36.179688 C 126.082031 35.574219 127.007812 34.988281 127.945312 34.425781 C 128.882812 33.863281 129.832031 33.324219 130.796875 32.808594 C 131.761719 32.292969 132.738281 31.804688 133.726562 31.335938 C 134.714844 30.867188 135.714844 30.425781 136.726562 30.007812 C 137.734375 29.589844 138.753906 29.195312 139.785156 28.828125 C 140.8125 28.457031 141.851562 28.117188 142.898438 27.796875 C 143.945312 27.480469 145 27.1875 146.058594 26.921875 C 147.121094 26.65625 148.1875 26.417969 149.257812 26.203125 C 150.332031 25.992188 151.40625 25.804688 152.488281 25.644531 C 153.570312 25.484375 154.65625 25.351562 155.746094 25.242188 C 156.832031 25.136719 157.921875 25.054688 159.015625 25 C 160.105469 24.949219 161.199219 24.921875 162.292969 24.921875 C 163.386719 24.921875 164.480469 24.949219 165.570312 25 C 166.664062 25.054688 167.753906 25.136719 168.839844 25.242188 C 169.929688 25.351562 171.015625 25.484375 172.097656 25.644531 C 173.179688 25.804688 174.253906 25.992188 175.328125 26.203125 C 176.398438 26.417969 177.464844 26.65625 178.527344 26.921875 C 179.585938 27.1875 180.640625 27.480469 181.6875 27.796875 C 182.734375 28.117188 183.773438 28.457031 184.800781 28.828125 C 185.832031 29.195312 186.851562 29.589844 187.859375 30.007812 C 188.871094 30.425781 189.871094 30.867188 190.859375 31.335938 C 191.847656 31.804688 192.824219 32.292969 193.789062 32.808594 C 194.753906 33.324219 195.703125 33.863281 196.640625 34.425781 C 197.578125 34.988281 198.503906 35.574219 199.410156 36.179688 C 200.320312 36.789062 201.214844 37.417969 202.09375 38.070312 C 202.972656 38.71875 203.832031 39.394531 204.679688 40.085938 C 205.523438 40.78125 206.351562 41.496094 207.160156 42.230469 C 207.972656 42.960938 208.761719 43.714844 209.535156 44.488281 C 210.308594 45.261719 211.0625 46.054688 211.796875 46.863281 C 212.53125 47.675781 213.246094 48.503906 213.9375 49.347656 C 214.632812 50.191406 215.304688 51.054688 215.957031 51.933594 C 216.609375 52.8125 217.238281 53.703125 217.84375 54.613281 C 218.453125 55.523438 219.035156 56.445312 219.597656 57.382812 C 220.160156 58.324219 220.699219 59.273438 221.214844 60.238281 C 221.730469 61.203125 222.222656 62.179688 222.691406 63.167969 C 223.15625 64.15625 223.601562 65.15625 224.019531 66.164062 C 224.4375 67.175781 224.832031 68.195312 225.199219 69.222656 C 225.566406 70.253906 225.910156 71.292969 226.226562 72.339844 C 226.546875 73.382812 226.835938 74.4375 227.101562 75.5 C 227.367188 76.558594 227.609375 77.625 227.820312 78.699219 C 228.035156 79.769531 228.222656 80.847656 228.382812 81.929688 C 228.542969 83.011719 228.675781 84.097656 228.78125 85.183594 C 228.890625 86.273438 228.96875 87.363281 229.023438 88.453125 C 229.078125 89.546875 229.105469 90.640625 229.105469 91.734375 Z M 229.105469 91.734375 " fill-opacity="1" fill-rule="nonzero"/></g><path fill="#c2873f" d="M 201.683594 62.804688 C 185.175781 62.804688 171.75 76.234375 171.75 92.742188 C 171.75 109.265625 185.175781 122.707031 201.683594 122.707031 C 218.203125 122.707031 231.648438 109.265625 231.648438 92.742188 C 231.648438 76.234375 218.203125 62.804688 201.683594 62.804688 " fill-opacity="1" fill-rule="nonzero"/><g clip-path="url(#6aff551d0a)"><path fill="#c2873f" d="M 344.570312 94.640625 C 342.460938 97.019531 302.242188 141.75 247.417969 160.242188 C 268.585938 145.625 282.484375 121.207031 282.484375 93.597656 C 282.484375 63.726562 266.21875 37.585938 242.082031 23.558594 C 299.613281 40.828125 342.398438 88.40625 344.574219 90.863281 L 346.25 92.75 Z M 58.804688 94.640625 L 57.128906 92.75 L 58.785156 90.882812 C 60.964844 88.445312 103.628906 41.386719 160.492188 23.863281 C 136.640625 37.960938 120.605469 63.9375 120.605469 93.597656 C 120.605469 121.046875 134.339844 145.34375 155.300781 159.984375 C 100.902344 141.34375 60.90625 97 58.804688 94.640625 Z M 201.542969 159.042969 C 165.453125 159.042969 136.097656 129.6875 136.097656 93.597656 C 136.097656 57.507812 165.453125 28.144531 201.542969 28.144531 C 237.632812 28.144531 266.992188 57.507812 266.992188 93.597656 C 266.992188 129.6875 237.632812 159.042969 201.542969 159.042969 Z M 362.402344 87.605469 L 356.164062 80.582031 C 353.316406 77.367188 285.414062 1.867188 201.695312 1.867188 C 166.667969 1.867188 130.394531 14.746094 93.882812 40.144531 C 66.867188 58.9375 49.164062 78.398438 47.210938 80.582031 L 40.980469 87.613281 C 38.378906 90.542969 38.378906 94.957031 40.980469 97.890625 L 47.222656 104.925781 C 49.128906 107.074219 66.636719 126.421875 93.855469 145.355469 C 130.363281 170.757812 166.640625 183.632812 201.695312 183.632812 C 285.414062 183.632812 353.316406 108.132812 356.160156 104.925781 L 362.402344 97.894531 C 365.007812 94.960938 365.007812 90.542969 362.402344 87.605469 " fill-opacity="1" fill-rule="nonzero"/></g><path fill="#c2873f" d="M 541.160156 61.785156 C 524.65625 61.785156 511.226562 75.214844 511.226562 91.71875 C 511.226562 108.242188 524.65625 121.683594 541.160156 121.683594 C 557.679688 121.683594 571.125 108.242188 571.125 91.71875 C 571.125 75.214844 557.679688 61.785156 541.160156 61.785156 " fill-opacity="1" fill-rule="nonzero"/><g clip-path="url(#540efb36ff)"><path fill="#c2873f" d="M 684.046875 93.621094 C 681.941406 95.996094 641.71875 140.730469 586.894531 159.21875 C 608.0625 144.605469 621.960938 120.183594 621.960938 92.578125 C 621.960938 62.703125 605.695312 36.5625 581.558594 22.539062 C 639.089844 39.804688 681.875 87.382812 684.054688 89.84375 L 685.726562 91.730469 Z M 398.285156 93.621094 L 396.605469 91.730469 L 398.261719 89.863281 C 400.441406 87.421875 443.105469 40.367188 499.96875 22.839844 C 476.117188 36.9375 460.082031 62.917969 460.082031 92.578125 C 460.082031 120.027344 473.816406 144.324219 494.777344 158.964844 C 440.378906 140.320312 400.382812 95.980469 398.285156 93.621094 Z M 541.019531 158.023438 C 504.929688 158.023438 475.574219 128.664062 475.574219 92.578125 C 475.574219 56.484375 504.929688 27.121094 541.019531 27.121094 C 577.109375 27.121094 606.46875 56.484375 606.46875 92.578125 C 606.46875 128.664062 577.109375 158.023438 541.019531 158.023438 Z M 701.878906 86.585938 L 695.640625 79.558594 C 692.792969 76.34375 624.894531 0.847656 541.171875 0.847656 C 506.144531 0.847656 469.871094 13.722656 433.359375 39.121094 C 406.34375 57.914062 388.640625 77.378906 386.691406 79.558594 L 380.457031 86.589844 C 377.855469 89.523438 377.855469 93.933594 380.457031 96.867188 L 386.699219 103.90625 C 388.605469 106.050781 406.113281 125.398438 433.332031 144.335938 C 469.839844 169.734375 506.117188 182.613281 541.171875 182.613281 C 624.894531 182.613281 692.792969 107.109375 695.636719 103.902344 L 701.878906 96.871094 C 704.484375 93.9375 704.484375 89.519531 701.878906 86.585938 " fill-opacity="1" fill-rule="nonzero"/></g><g clip-path="url(#520c2f59b2)"><path fill="#f6e3b4" d="M 607.449219 91.199219 C 607.449219 92.292969 607.421875 93.386719 607.371094 94.476562 C 607.316406 95.570312 607.234375 96.660156 607.128906 97.746094 C 607.019531 98.835938 606.886719 99.921875 606.726562 101 C 606.566406 102.082031 606.378906 103.160156 606.167969 104.234375 C 605.953125 105.304688 605.714844 106.371094 605.449219 107.433594 C 605.183594 108.492188 604.890625 109.546875 604.574219 110.59375 C 604.257812 111.640625 603.914062 112.675781 603.542969 113.707031 C 603.175781 114.734375 602.78125 115.757812 602.363281 116.765625 C 601.945312 117.777344 601.503906 118.777344 601.035156 119.765625 C 600.566406 120.753906 600.078125 121.730469 599.5625 122.695312 C 599.046875 123.65625 598.507812 124.609375 597.945312 125.546875 C 597.382812 126.484375 596.796875 127.40625 596.191406 128.316406 C 595.582031 129.226562 594.953125 130.121094 594.300781 131 C 593.652344 131.875 592.976562 132.738281 592.285156 133.582031 C 591.589844 134.429688 590.878906 135.257812 590.144531 136.066406 C 589.410156 136.875 588.65625 137.667969 587.882812 138.441406 C 587.109375 139.214844 586.316406 139.96875 585.507812 140.703125 C 584.695312 141.4375 583.867188 142.152344 583.023438 142.84375 C 582.179688 143.539062 581.316406 144.210938 580.4375 144.863281 C 579.558594 145.511719 578.667969 146.144531 577.757812 146.75 C 576.847656 147.359375 575.925781 147.941406 574.988281 148.503906 C 574.046875 149.066406 573.097656 149.605469 572.132812 150.121094 C 571.167969 150.636719 570.191406 151.128906 569.203125 151.59375 C 568.214844 152.0625 567.214844 152.507812 566.207031 152.925781 C 565.195312 153.34375 564.175781 153.738281 563.148438 154.105469 C 562.117188 154.472656 561.078125 154.816406 560.03125 155.132812 C 558.988281 155.449219 557.933594 155.742188 556.871094 156.007812 C 555.8125 156.273438 554.746094 156.511719 553.671875 156.726562 C 552.601562 156.941406 551.523438 157.125 550.441406 157.285156 C 549.359375 157.449219 548.277344 157.582031 547.1875 157.6875 C 546.097656 157.796875 545.007812 157.875 543.917969 157.929688 C 542.824219 157.984375 541.730469 158.011719 540.636719 158.011719 C 539.546875 158.011719 538.453125 157.984375 537.359375 157.929688 C 536.269531 157.875 535.179688 157.796875 534.089844 157.6875 C 533 157.582031 531.917969 157.449219 530.835938 157.285156 C 529.753906 157.125 528.675781 156.941406 527.605469 156.726562 C 526.53125 156.511719 525.464844 156.273438 524.40625 156.007812 C 523.34375 155.742188 522.289062 155.449219 521.246094 155.132812 C 520.199219 154.816406 519.160156 154.472656 518.128906 154.105469 C 517.101562 153.738281 516.082031 153.34375 515.070312 152.925781 C 514.0625 152.507812 513.0625 152.0625 512.074219 151.59375 C 511.085938 151.128906 510.109375 150.636719 509.144531 150.121094 C 508.179688 149.605469 507.226562 149.066406 506.289062 148.503906 C 505.351562 147.941406 504.429688 147.359375 503.519531 146.75 C 502.609375 146.144531 501.71875 145.511719 500.839844 144.863281 C 499.960938 144.210938 499.097656 143.539062 498.253906 142.84375 C 497.410156 142.152344 496.582031 141.4375 495.769531 140.703125 C 494.960938 139.96875 494.167969 139.214844 493.394531 138.441406 C 492.621094 137.667969 491.867188 136.875 491.132812 136.066406 C 490.398438 135.257812 489.6875 134.429688 488.992188 133.582031 C 488.300781 132.738281 487.625 131.875 486.976562 131 C 486.324219 130.121094 485.695312 129.226562 485.085938 128.316406 C 484.480469 127.40625 483.894531 126.484375 483.332031 125.546875 C 482.769531 124.609375 482.230469 123.65625 481.714844 122.695312 C 481.199219 121.730469 480.710938 120.753906 480.242188 119.765625 C 479.773438 118.777344 479.332031 117.777344 478.914062 116.765625 C 478.496094 115.757812 478.101562 114.734375 477.734375 113.707031 C 477.363281 112.675781 477.019531 111.640625 476.703125 110.59375 C 476.386719 109.546875 476.09375 108.492188 475.828125 107.433594 C 475.5625 106.371094 475.324219 105.304688 475.109375 104.234375 C 474.898438 103.160156 474.710938 102.082031 474.550781 101 C 474.390625 99.921875 474.257812 98.835938 474.148438 97.746094 C 474.042969 96.660156 473.960938 95.570312 473.90625 94.476562 C 473.855469 93.386719 473.828125 92.292969 473.828125 91.199219 C 473.828125 90.105469 473.855469 89.011719 473.90625 87.921875 C 473.960938 86.828125 474.042969 85.738281 474.148438 84.648438 C 474.257812 83.5625 474.390625 82.476562 474.550781 81.394531 C 474.710938 80.3125 474.898438 79.238281 475.109375 78.164062 C 475.324219 77.09375 475.5625 76.023438 475.828125 74.964844 C 476.09375 73.902344 476.386719 72.851562 476.703125 71.804688 C 477.019531 70.757812 477.363281 69.71875 477.734375 68.691406 C 478.101562 67.660156 478.496094 66.640625 478.914062 65.632812 C 479.332031 64.621094 479.773438 63.621094 480.242188 62.632812 C 480.710938 61.644531 481.199219 60.667969 481.714844 59.703125 C 482.230469 58.738281 482.769531 57.789062 483.332031 56.851562 C 483.894531 55.914062 484.480469 54.988281 485.085938 54.082031 C 485.695312 53.171875 486.324219 52.277344 486.976562 51.398438 C 487.625 50.519531 488.300781 49.660156 488.992188 48.8125 C 489.6875 47.96875 490.398438 47.140625 491.132812 46.332031 C 491.867188 45.519531 492.621094 44.730469 493.394531 43.957031 C 494.167969 43.183594 494.960938 42.429688 495.769531 41.695312 C 496.582031 40.960938 497.410156 40.246094 498.253906 39.550781 C 499.097656 38.859375 499.960938 38.1875 500.839844 37.535156 C 501.71875 36.882812 502.609375 36.253906 503.519531 35.648438 C 504.429688 35.039062 505.351562 34.453125 506.289062 33.890625 C 507.226562 33.332031 508.179688 32.792969 509.144531 32.277344 C 510.109375 31.761719 511.085938 31.269531 512.074219 30.800781 C 513.0625 30.335938 514.0625 29.890625 515.070312 29.472656 C 516.082031 29.054688 517.101562 28.660156 518.128906 28.292969 C 519.160156 27.925781 520.199219 27.582031 521.246094 27.265625 C 522.289062 26.945312 523.34375 26.65625 524.40625 26.390625 C 525.464844 26.125 526.53125 25.882812 527.605469 25.671875 C 528.675781 25.457031 529.753906 25.269531 530.835938 25.109375 C 531.917969 24.949219 533 24.816406 534.089844 24.707031 C 535.179688 24.601562 536.269531 24.519531 537.359375 24.46875 C 538.453125 24.414062 539.546875 24.386719 540.636719 24.386719 C 541.730469 24.386719 542.824219 24.414062 543.917969 24.46875 C 545.007812 24.519531 546.097656 24.601562 547.1875 24.707031 C 548.277344 24.816406 549.359375 24.949219 550.441406 25.109375 C 551.523438 25.269531 552.601562 25.457031 553.671875 25.671875 C 554.746094 25.882812 555.8125 26.125 556.871094 26.390625 C 557.933594 26.65625 558.988281 26.945312 560.03125 27.265625 C 561.078125 27.582031 562.117188 27.925781 563.148438 28.292969 C 564.175781 28.660156 565.195312 29.054688 566.207031 29.472656 C 567.214844 29.890625 568.214844 30.335938 569.203125 30.800781 C 570.191406 31.269531 571.167969 31.761719 572.132812 32.277344 C 573.097656 32.792969 574.046875 33.332031 574.988281 33.890625 C 575.925781 34.453125 576.847656 35.039062 577.757812 35.648438 C 578.667969 36.253906 579.558594 36.882812 580.4375 37.535156 C 581.316406 38.1875 582.179688 38.859375 583.023438 39.550781 C 583.867188 40.246094 584.695312 40.960938 585.507812 41.695312 C 586.316406 42.429688 587.109375 43.183594 587.882812 43.957031 C 588.65625 44.730469 589.410156 45.519531 590.144531 46.332031 C 590.878906 47.140625 591.589844 47.96875 592.285156 48.8125 C 592.976562 49.660156 593.652344 50.519531 594.300781 51.398438 C 594.953125 52.277344 595.582031 53.171875 596.191406 54.078125 C 596.796875 54.988281 597.382812 55.914062 597.945312 56.851562 C 598.507812 57.789062 599.046875 58.738281 599.5625 59.703125 C 600.078125 60.667969 600.566406 61.644531 601.035156 62.632812 C 601.503906 63.621094 601.945312 64.621094 602.363281 65.632812 C 602.78125 66.640625 603.175781 67.660156 603.542969 68.691406 C 603.914062 69.71875 604.257812 70.757812 604.574219 71.804688 C 604.890625 72.851562 605.183594 73.902344 605.449219 74.964844 C 605.714844 76.023438 605.953125 77.09375 606.167969 78.164062 C 606.378906 79.238281 606.566406 80.3125 606.726562 81.394531 C 606.886719 82.476562 607.019531 83.5625 607.128906 84.648438 C 607.234375 85.738281 607.316406 86.828125 607.371094 87.921875 C 607.421875 89.011719 607.449219 90.105469 607.449219 91.199219 Z M 607.449219 91.199219 " fill-opacity="1" fill-rule="nonzero"/></g><path fill="#c2873f" d="M 501.507812 62.804688 C 485 62.804688 471.570312 76.234375 471.570312 92.742188 C 471.570312 109.265625 485 122.707031 501.507812 122.707031 C 518.027344 122.707031 531.46875 109.265625 531.46875 92.742188 C 531.46875 76.234375 518.027344 62.804688 501.507812 62.804688 " fill-opacity="1" fill-rule="nonzero"/><g clip-path="url(#1f7d1473ce)"><path fill="#c2873f" d="M 644.394531 94.640625 C 642.285156 97.019531 602.066406 141.75 547.242188 160.242188 C 568.40625 145.625 582.308594 121.207031 582.308594 93.597656 C 582.308594 63.726562 566.042969 37.585938 541.90625 23.558594 C 599.4375 40.828125 642.21875 88.40625 644.398438 90.863281 L 646.074219 92.75 Z M 358.628906 94.640625 L 356.953125 92.75 L 358.605469 90.882812 C 360.789062 88.445312 403.453125 41.386719 460.316406 23.863281 C 436.464844 37.960938 420.425781 63.9375 420.425781 93.597656 C 420.425781 121.046875 434.164062 145.34375 455.125 159.984375 C 400.722656 141.34375 360.726562 97 358.628906 94.640625 Z M 501.367188 159.042969 C 465.277344 159.042969 435.917969 129.6875 435.917969 93.597656 C 435.917969 57.507812 465.277344 28.144531 501.367188 28.144531 C 537.457031 28.144531 566.816406 57.507812 566.816406 93.597656 C 566.816406 129.6875 537.457031 159.042969 501.367188 159.042969 Z M 662.226562 87.605469 L 655.988281 80.582031 C 653.140625 77.367188 585.238281 1.867188 501.515625 1.867188 C 466.492188 1.867188 430.21875 14.746094 393.707031 40.144531 C 366.6875 58.9375 348.988281 78.398438 347.035156 80.582031 L 340.804688 87.613281 C 338.203125 90.542969 338.203125 94.957031 340.804688 97.890625 L 347.046875 104.925781 C 348.953125 107.074219 366.460938 126.421875 393.679688 145.355469 C 430.1875 170.757812 466.464844 183.632812 501.515625 183.632812 C 585.238281 183.632812 653.140625 108.132812 655.984375 104.925781 L 662.226562 97.894531 C 664.832031 94.960938 664.832031 90.542969 662.226562 87.605469 " fill-opacity="1" fill-rule="nonzero"/></g></g></g></svg>