<svg xmlns="http://www.w3.org/2000/svg" xmlns:xlink="http://www.w3.org/1999/xlink" width="1080" zoomAndPan="magnify" viewBox="0 0 810 809.999993" height="1080" preserveAspectRatio="xMidYMid meet" version="1.0"><defs><clipPath id="65513239d4"><path d="M 569.851562 324.886719 L 774.601562 324.886719 L 774.601562 485.386719 L 569.851562 485.386719 Z M 569.851562 324.886719 " clip-rule="nonzero"/></clipPath><clipPath id="b0ed3f4178"><path d="M 16 8 L 205.496094 8 L 205.496094 161.386719 L 16 161.386719 Z M 16 8 " clip-rule="nonzero"/></clipPath><clipPath id="1b94e3a0d2"><path d="M 0.851562 151 L 27 151 L 27 161.386719 L 0.851562 161.386719 Z M 0.851562 151 " clip-rule="nonzero"/></clipPath><clipPath id="644fbc0814"><path d="M 0.851562 0.886719 L 27 0.886719 L 27 20 L 0.851562 20 Z M 0.851562 0.886719 " clip-rule="nonzero"/></clipPath><clipPath id="55248142b5"><rect x="0" width="206" y="0" height="162"/></clipPath><clipPath id="a5614eeccc"><path d="M 241 313.375 L 569 313.375 L 569 496.375 L 241 496.375 Z M 241 313.375 " clip-rule="nonzero"/></clipPath><clipPath id="8d4a58f432"><path d="M 337.648438 337.648438 L 472.648438 337.648438 L 472.648438 472.648438 L 337.648438 472.648438 Z M 337.648438 337.648438 " clip-rule="nonzero"/></clipPath><clipPath id="64024f75cf"><path d="M 373.367188 373.367188 L 436.367188 373.367188 L 436.367188 436.367188 L 373.367188 436.367188 Z M 373.367188 373.367188 " clip-rule="nonzero"/></clipPath></defs><g clip-path="url(#65513239d4)"><g transform="matrix(1, 0, 0, 1, 569, 324)"><g clip-path="url(#55248142b5)"><g clip-path="url(#b0ed3f4178)"><path fill="#c2873f" d="M 16.304688 85.445312 C 16.304688 76.773438 23.335938 69.742188 32.007812 69.742188 L 151.820312 69.742188 L 117.601562 35.523438 C 111.46875 29.390625 111.46875 19.449219 117.601562 13.316406 C 123.726562 7.1875 133.675781 7.1875 139.804688 13.316406 L 200.824219 74.335938 C 201.554688 75.066406 202.207031 75.875 202.785156 76.738281 C 203.039062 77.117188 203.214844 77.53125 203.429688 77.929688 C 203.707031 78.429688 204.007812 78.910156 204.226562 79.4375 C 204.441406 79.957031 204.5625 80.492188 204.71875 81.023438 C 204.851562 81.472656 205.023438 81.90625 205.117188 82.371094 C 205.519531 84.398438 205.519531 86.488281 205.117188 88.519531 C 205.023438 88.984375 204.851562 89.414062 204.71875 89.863281 C 204.5625 90.394531 204.441406 90.933594 204.226562 91.449219 C 204.007812 91.980469 203.707031 92.460938 203.429688 92.960938 C 203.214844 93.355469 203.039062 93.769531 202.785156 94.152344 C 202.207031 95.015625 201.554688 95.820312 200.824219 96.550781 L 139.804688 157.570312 C 136.742188 160.632812 132.71875 162.167969 128.703125 162.167969 C 124.683594 162.167969 120.664062 160.632812 117.601562 157.570312 C 111.46875 151.4375 111.46875 141.496094 117.601562 135.363281 L 151.816406 101.148438 L 32.007812 101.148438 C 23.335938 101.148438 16.304688 94.117188 16.304688 85.445312 " fill-opacity="1" fill-rule="nonzero"/></g><g clip-path="url(#1b94e3a0d2)"><path fill="#c2873f" d="M -99.726562 252.847656 L -65.507812 287.066406 L -65.507812 167.257812 C -65.507812 158.585938 -58.480469 151.554688 -49.804688 151.554688 C -41.132812 151.554688 -34.105469 158.585938 -34.105469 167.257812 L -34.105469 287.066406 L 0.117188 252.847656 C 6.242188 246.71875 16.191406 246.71875 22.320312 252.847656 C 28.453125 258.980469 28.453125 268.921875 22.320312 275.054688 L -38.699219 336.070312 C -39.429688 336.800781 -40.234375 337.457031 -41.097656 338.03125 C -41.484375 338.289062 -41.898438 338.464844 -42.300781 338.683594 C -42.796875 338.957031 -43.273438 339.257812 -43.800781 339.476562 C -44.316406 339.6875 -44.851562 339.808594 -45.378906 339.964844 C -45.832031 340.097656 -46.265625 340.273438 -46.730469 340.367188 C -47.746094 340.566406 -48.777344 340.675781 -49.804688 340.675781 C -50.835938 340.675781 -51.867188 340.566406 -52.878906 340.367188 C -53.347656 340.273438 -53.78125 340.097656 -54.230469 339.964844 C -54.761719 339.808594 -55.296875 339.6875 -55.8125 339.476562 C -56.339844 339.257812 -56.816406 338.957031 -57.3125 338.683594 C -57.714844 338.464844 -58.128906 338.289062 -58.511719 338.03125 C -59.375 337.457031 -60.183594 336.800781 -60.914062 336.070312 L -121.929688 275.054688 C -128.066406 268.921875 -128.066406 258.980469 -121.929688 252.847656 C -115.804688 246.71875 -105.855469 246.71875 -99.726562 252.847656 " fill-opacity="1" fill-rule="nonzero"/></g><g clip-path="url(#644fbc0814)"><path fill="#c2873f" d="M 11.21875 -77.363281 C 7.199219 -77.363281 3.179688 -78.894531 0.117188 -81.960938 L -34.105469 -116.179688 L -34.105469 3.628906 C -34.105469 12.300781 -41.132812 19.332031 -49.804688 19.332031 C -58.480469 19.332031 -65.507812 12.300781 -65.507812 3.628906 L -65.507812 -116.179688 L -99.726562 -81.960938 C -102.792969 -78.894531 -106.8125 -77.363281 -110.828125 -77.363281 C -114.847656 -77.363281 -118.867188 -78.894531 -121.929688 -81.960938 C -128.066406 -88.09375 -128.066406 -98.035156 -121.929688 -104.167969 L -60.914062 -165.183594 C -60.183594 -165.914062 -59.375 -166.570312 -58.511719 -167.144531 C -58.128906 -167.402344 -57.714844 -167.578125 -57.3125 -167.800781 C -56.816406 -168.070312 -56.339844 -168.371094 -55.8125 -168.589844 C -55.304688 -168.796875 -54.777344 -168.917969 -54.253906 -169.070312 C -53.792969 -169.207031 -53.355469 -169.386719 -52.878906 -169.480469 C -51.914062 -169.671875 -50.9375 -169.761719 -49.960938 -169.773438 C -49.90625 -169.773438 -49.859375 -169.789062 -49.804688 -169.789062 C -49.753906 -169.789062 -49.703125 -169.773438 -49.652344 -169.773438 C -48.675781 -169.761719 -47.695312 -169.671875 -46.734375 -169.480469 C -46.257812 -169.386719 -45.816406 -169.207031 -45.359375 -169.070312 C -44.835938 -168.917969 -44.308594 -168.796875 -43.800781 -168.589844 C -43.273438 -168.371094 -42.796875 -168.070312 -42.300781 -167.800781 C -41.898438 -167.578125 -41.484375 -167.402344 -41.097656 -167.144531 C -40.234375 -166.570312 -39.429688 -165.914062 -38.699219 -165.183594 L 22.320312 -104.167969 C 28.453125 -98.035156 28.453125 -88.09375 22.320312 -81.960938 C 19.253906 -78.894531 15.234375 -77.363281 11.21875 -77.363281 " fill-opacity="1" fill-rule="nonzero"/></g></g></g></g><path fill="#c2873f" d="M 404.988281 374.808594 C 388.347656 374.808594 374.808594 388.347656 374.808594 404.988281 C 374.808594 421.644531 388.347656 435.195312 404.988281 435.195312 C 421.640625 435.195312 435.191406 421.644531 435.191406 404.988281 C 435.191406 388.347656 421.640625 374.808594 404.988281 374.808594 " fill-opacity="1" fill-rule="nonzero"/><g clip-path="url(#a5614eeccc)"><path fill="#c2873f" d="M 549.03125 406.902344 C 546.90625 409.300781 506.359375 454.394531 451.09375 473.035156 C 472.429688 458.300781 486.441406 433.683594 486.441406 405.851562 C 486.441406 375.738281 470.046875 349.386719 445.710938 335.246094 C 503.710938 352.652344 546.839844 400.617188 549.035156 403.09375 L 550.722656 404.996094 Z M 260.953125 406.902344 L 259.265625 404.996094 L 260.929688 403.117188 C 263.128906 400.65625 306.140625 353.21875 363.460938 335.550781 C 339.417969 349.761719 323.25 375.953125 323.25 405.851562 C 323.25 433.523438 337.101562 458.015625 358.230469 472.773438 C 303.390625 453.980469 263.070312 409.28125 260.953125 406.902344 Z M 404.84375 471.828125 C 368.464844 471.828125 338.871094 442.230469 338.871094 405.851562 C 338.871094 369.46875 368.464844 339.867188 404.84375 339.867188 C 441.226562 339.867188 470.824219 369.46875 470.824219 405.851562 C 470.824219 442.230469 441.226562 471.828125 404.84375 471.828125 Z M 567.007812 399.8125 L 560.71875 392.730469 C 557.847656 389.488281 489.398438 313.378906 404.996094 313.378906 C 369.6875 313.378906 333.121094 326.359375 296.316406 351.964844 C 269.078125 370.910156 251.234375 390.53125 249.265625 392.730469 L 242.984375 399.816406 C 240.363281 402.773438 240.363281 407.222656 242.984375 410.175781 L 249.277344 417.273438 C 251.199219 419.433594 268.847656 438.9375 296.289062 458.027344 C 333.089844 483.632812 369.664062 496.617188 404.996094 496.617188 C 489.398438 496.617188 557.847656 420.503906 560.714844 417.269531 L 567.007812 410.183594 C 569.632812 407.222656 569.632812 402.769531 567.007812 399.8125 " fill-opacity="1" fill-rule="nonzero"/></g><g clip-path="url(#8d4a58f432)"><path fill="#f6e3b4" d="M 472.34375 404.996094 C 472.34375 406.097656 472.316406 407.199219 472.261719 408.300781 C 472.207031 409.402344 472.128906 410.5 472.019531 411.597656 C 471.910156 412.695312 471.777344 413.789062 471.613281 414.878906 C 471.453125 415.96875 471.265625 417.054688 471.050781 418.136719 C 470.835938 419.214844 470.59375 420.289062 470.324219 421.359375 C 470.058594 422.429688 469.761719 423.492188 469.445312 424.546875 C 469.125 425.601562 468.777344 426.648438 468.40625 427.683594 C 468.035156 428.722656 467.640625 429.75 467.21875 430.769531 C 466.796875 431.789062 466.347656 432.792969 465.878906 433.789062 C 465.40625 434.789062 464.910156 435.769531 464.390625 436.742188 C 463.871094 437.714844 463.328125 438.675781 462.761719 439.621094 C 462.195312 440.566406 461.605469 441.496094 460.992188 442.414062 C 460.382812 443.328125 459.746094 444.230469 459.089844 445.113281 C 458.433594 446 457.753906 446.867188 457.054688 447.722656 C 456.355469 448.574219 455.636719 449.40625 454.898438 450.222656 C 454.15625 451.039062 453.398438 451.839844 452.617188 452.617188 C 451.839844 453.398438 451.039062 454.15625 450.222656 454.898438 C 449.40625 455.636719 448.574219 456.355469 447.722656 457.054688 C 446.867188 457.753906 446 458.433594 445.113281 459.089844 C 444.230469 459.746094 443.328125 460.382812 442.414062 460.992188 C 441.496094 461.605469 440.566406 462.195312 439.621094 462.761719 C 438.675781 463.328125 437.714844 463.871094 436.742188 464.390625 C 435.769531 464.910156 434.789062 465.40625 433.789062 465.878906 C 432.792969 466.347656 431.785156 466.796875 430.769531 467.21875 C 429.75 467.640625 428.722656 468.035156 427.683594 468.40625 C 426.648438 468.777344 425.601562 469.125 424.546875 469.445312 C 423.492188 469.761719 422.429688 470.058594 421.359375 470.324219 C 420.289062 470.59375 419.214844 470.835938 418.136719 471.050781 C 417.054688 471.265625 415.96875 471.453125 414.878906 471.613281 C 413.789062 471.777344 412.695312 471.910156 411.597656 472.019531 C 410.5 472.128906 409.402344 472.207031 408.300781 472.261719 C 407.199219 472.316406 406.097656 472.34375 404.996094 472.34375 C 403.894531 472.34375 402.792969 472.316406 401.691406 472.261719 C 400.589844 472.207031 399.492188 472.128906 398.394531 472.019531 C 397.296875 471.910156 396.203125 471.777344 395.113281 471.613281 C 394.023438 471.453125 392.9375 471.265625 391.855469 471.050781 C 390.777344 470.835938 389.699219 470.59375 388.632812 470.324219 C 387.5625 470.058594 386.5 469.761719 385.445312 469.445312 C 384.390625 469.125 383.34375 468.777344 382.308594 468.40625 C 381.269531 468.035156 380.242188 467.640625 379.222656 467.21875 C 378.203125 466.796875 377.199219 466.347656 376.199219 465.878906 C 375.203125 465.40625 374.21875 464.910156 373.25 464.390625 C 372.277344 463.871094 371.316406 463.328125 370.371094 462.761719 C 369.425781 462.195312 368.496094 461.605469 367.578125 460.992188 C 366.664062 460.382812 365.761719 459.746094 364.878906 459.089844 C 363.992188 458.433594 363.121094 457.753906 362.269531 457.054688 C 361.417969 456.355469 360.585938 455.636719 359.769531 454.898438 C 358.953125 454.15625 358.152344 453.398438 357.375 452.617188 C 356.59375 451.839844 355.835938 451.039062 355.09375 450.222656 C 354.355469 449.40625 353.632812 448.574219 352.933594 447.722656 C 352.234375 446.867188 351.558594 446 350.902344 445.113281 C 350.246094 444.230469 349.609375 443.328125 349 442.414062 C 348.386719 441.496094 347.796875 440.566406 347.230469 439.621094 C 346.664062 438.675781 346.121094 437.714844 345.601562 436.742188 C 345.082031 435.769531 344.585938 434.789062 344.113281 433.789062 C 343.644531 432.792969 343.195312 431.789062 342.773438 430.769531 C 342.351562 429.75 341.957031 428.722656 341.585938 427.683594 C 341.214844 426.648438 340.867188 425.601562 340.546875 424.546875 C 340.226562 423.492188 339.933594 422.429688 339.667969 421.359375 C 339.398438 420.289062 339.15625 419.214844 338.941406 418.136719 C 338.726562 417.054688 338.539062 415.96875 338.378906 414.878906 C 338.214844 413.789062 338.082031 412.695312 337.972656 411.597656 C 337.863281 410.5 337.785156 409.402344 337.730469 408.300781 C 337.675781 407.199219 337.648438 406.097656 337.648438 404.996094 C 337.648438 403.894531 337.675781 402.792969 337.730469 401.691406 C 337.785156 400.589844 337.863281 399.492188 337.972656 398.394531 C 338.082031 397.296875 338.214844 396.203125 338.378906 395.113281 C 338.539062 394.023438 338.726562 392.9375 338.941406 391.855469 C 339.15625 390.777344 339.398438 389.699219 339.667969 388.632812 C 339.933594 387.5625 340.226562 386.5 340.546875 385.445312 C 340.867188 384.390625 341.214844 383.34375 341.585938 382.308594 C 341.957031 381.269531 342.351562 380.242188 342.773438 379.222656 C 343.195312 378.203125 343.644531 377.199219 344.113281 376.203125 C 344.585938 375.203125 345.082031 374.21875 345.601562 373.25 C 346.121094 372.277344 346.664062 371.316406 347.230469 370.371094 C 347.796875 369.425781 348.386719 368.496094 349 367.578125 C 349.609375 366.664062 350.246094 365.761719 350.902344 364.878906 C 351.558594 363.992188 352.234375 363.125 352.933594 362.269531 C 353.632812 361.417969 354.355469 360.585938 355.09375 359.769531 C 355.835938 358.953125 356.59375 358.152344 357.375 357.375 C 358.152344 356.59375 358.953125 355.835938 359.769531 355.09375 C 360.585938 354.355469 361.417969 353.636719 362.269531 352.9375 C 363.121094 352.238281 363.992188 351.558594 364.878906 350.902344 C 365.761719 350.246094 366.664062 349.609375 367.578125 349 C 368.496094 348.386719 369.425781 347.796875 370.371094 347.230469 C 371.316406 346.664062 372.277344 346.121094 373.25 345.601562 C 374.21875 345.082031 375.203125 344.585938 376.199219 344.113281 C 377.199219 343.644531 378.203125 343.195312 379.222656 342.773438 C 380.242188 342.351562 381.269531 341.957031 382.308594 341.585938 C 383.34375 341.214844 384.390625 340.867188 385.445312 340.546875 C 386.5 340.226562 387.5625 339.933594 388.632812 339.667969 C 389.699219 339.398438 390.777344 339.15625 391.855469 338.941406 C 392.9375 338.726562 394.023438 338.539062 395.113281 338.378906 C 396.203125 338.214844 397.296875 338.082031 398.394531 337.972656 C 399.492188 337.863281 400.589844 337.785156 401.691406 337.730469 C 402.792969 337.675781 403.894531 337.648438 404.996094 337.648438 C 406.097656 337.648438 407.199219 337.675781 408.300781 337.730469 C 409.402344 337.785156 410.5 337.863281 411.597656 337.972656 C 412.695312 338.082031 413.789062 338.214844 414.878906 338.378906 C 415.96875 338.539062 417.054688 338.726562 418.136719 338.941406 C 419.214844 339.15625 420.289062 339.398438 421.359375 339.667969 C 422.429688 339.933594 423.492188 340.226562 424.546875 340.546875 C 425.601562 340.867188 426.648438 341.214844 427.683594 341.585938 C 428.722656 341.957031 429.75 342.351562 430.769531 342.773438 C 431.785156 343.195312 432.792969 343.644531 433.789062 344.113281 C 434.789062 344.585938 435.769531 345.082031 436.742188 345.601562 C 437.714844 346.121094 438.675781 346.664062 439.621094 347.230469 C 440.566406 347.796875 441.496094 348.386719 442.414062 349 C 443.328125 349.609375 444.230469 350.246094 445.113281 350.902344 C 446 351.558594 446.867188 352.238281 447.722656 352.9375 C 448.574219 353.636719 449.40625 354.355469 450.222656 355.09375 C 451.039062 355.835938 451.839844 356.59375 452.617188 357.375 C 453.398438 358.152344 454.15625 358.953125 454.898438 359.769531 C 455.636719 360.585938 456.355469 361.417969 457.054688 362.269531 C 457.753906 363.125 458.433594 363.992188 459.089844 364.878906 C 459.746094 365.761719 460.382812 366.664062 460.992188 367.578125 C 461.605469 368.496094 462.195312 369.425781 462.761719 370.371094 C 463.328125 371.316406 463.871094 372.277344 464.390625 373.25 C 464.910156 374.21875 465.40625 375.203125 465.878906 376.203125 C 466.347656 377.199219 466.796875 378.203125 467.21875 379.222656 C 467.640625 380.242188 468.035156 381.269531 468.40625 382.308594 C 468.777344 383.34375 469.125 384.390625 469.445312 385.445312 C 469.761719 386.5 470.058594 387.5625 470.324219 388.632812 C 470.59375 389.699219 470.835938 390.777344 471.050781 391.855469 C 471.265625 392.9375 471.453125 394.023438 471.613281 395.113281 C 471.777344 396.203125 471.910156 397.296875 472.019531 398.394531 C 472.128906 399.492188 472.207031 400.589844 472.261719 401.691406 C 472.316406 402.792969 472.34375 403.894531 472.34375 404.996094 Z M 472.34375 404.996094 " fill-opacity="1" fill-rule="nonzero"/></g><path fill="#c2873f" d="M 405.128906 375.300781 C 388.492188 375.300781 374.953125 388.839844 374.953125 405.476562 C 374.953125 422.136719 388.492188 435.6875 405.128906 435.6875 C 421.785156 435.6875 435.335938 422.136719 435.335938 405.476562 C 435.335938 388.839844 421.785156 375.300781 405.128906 375.300781 " fill-opacity="1" fill-rule="nonzero"/><g clip-path="url(#64024f75cf)"><path fill="#c2873f" d="M 549.171875 407.394531 C 547.046875 409.792969 506.503906 454.886719 451.234375 473.523438 C 472.574219 458.792969 486.582031 434.171875 486.582031 406.34375 C 486.582031 376.226562 470.1875 349.875 445.855469 335.738281 C 503.851562 353.144531 546.980469 401.109375 549.179688 403.585938 L 550.867188 405.488281 Z M 261.097656 407.394531 L 259.40625 405.488281 L 261.074219 403.605469 C 263.273438 401.144531 306.28125 353.707031 363.605469 336.042969 C 339.5625 350.253906 323.394531 376.445312 323.394531 406.34375 C 323.394531 434.011719 337.242188 458.507812 358.371094 473.265625 C 303.53125 454.472656 263.210938 409.773438 261.097656 407.394531 Z M 404.988281 472.316406 C 368.609375 472.316406 339.011719 442.722656 339.011719 406.34375 C 339.011719 369.960938 368.609375 340.359375 404.988281 340.359375 C 441.371094 340.359375 470.964844 369.960938 470.964844 406.34375 C 470.964844 442.722656 441.371094 472.316406 404.988281 472.316406 Z M 567.148438 400.300781 L 560.859375 393.21875 C 557.988281 389.980469 489.539062 313.871094 405.140625 313.871094 C 369.832031 313.871094 333.265625 326.851562 296.457031 352.457031 C 269.222656 371.402344 251.378906 391.023438 249.410156 393.21875 L 243.125 400.308594 C 240.503906 403.265625 240.503906 407.710938 243.125 410.667969 L 249.417969 417.761719 C 251.339844 419.925781 268.988281 439.429688 296.429688 458.519531 C 333.230469 484.125 369.804688 497.105469 405.140625 497.105469 C 489.539062 497.105469 557.988281 420.992188 560.855469 417.761719 L 567.148438 410.671875 C 569.777344 407.714844 569.777344 403.261719 567.148438 400.300781 " fill-opacity="1" fill-rule="nonzero"/></g></svg>