<svg xmlns="http://www.w3.org/2000/svg" xmlns:xlink="http://www.w3.org/1999/xlink" width="1080" zoomAndPan="magnify" viewBox="0 0 810 809.999993" height="1080" preserveAspectRatio="xMidYMid meet" version="1.0"><defs><clipPath id="bd1678db8f"><path d="M 35.503906 332 L 225 332 L 225 485.386719 L 35.503906 485.386719 Z M 35.503906 332 " clip-rule="nonzero"/></clipPath><clipPath id="b83d762b71"><path d="M 214 475 L 240.253906 475 L 240.253906 485.386719 L 214 485.386719 Z M 214 475 " clip-rule="nonzero"/></clipPath><clipPath id="2115124ca0"><path d="M 214 324.886719 L 240.253906 324.886719 L 240.253906 344 L 214 344 Z M 214 324.886719 " clip-rule="nonzero"/></clipPath><clipPath id="db280413c5"><path d="M 241 313.375 L 569 313.375 L 569 496.375 L 241 496.375 Z M 241 313.375 " clip-rule="nonzero"/></clipPath><clipPath id="0be9251fec"><path d="M 337.648438 337.648438 L 472.648438 337.648438 L 472.648438 472.648438 L 337.648438 472.648438 Z M 337.648438 337.648438 " clip-rule="nonzero"/></clipPath><clipPath id="3dc8c61e45"><path d="M 373.367188 373.367188 L 436.367188 373.367188 L 436.367188 436.367188 L 373.367188 436.367188 Z M 373.367188 373.367188 " clip-rule="nonzero"/></clipPath></defs><g clip-path="url(#bd1678db8f)"><path fill="#c2873f" d="M 224.695312 409.445312 C 224.695312 400.773438 217.664062 393.742188 208.992188 393.742188 L 89.179688 393.742188 L 123.398438 359.523438 C 129.53125 353.390625 129.53125 343.449219 123.398438 337.316406 C 117.273438 331.1875 107.324219 331.1875 101.195312 337.316406 L 40.175781 398.335938 C 39.445312 399.066406 38.789062 399.875 38.214844 400.738281 C 37.960938 401.117188 37.785156 401.53125 37.566406 401.929688 C 37.292969 402.429688 36.992188 402.910156 36.773438 403.4375 C 36.558594 403.957031 36.4375 404.492188 36.28125 405.023438 C 36.148438 405.472656 35.976562 405.90625 35.882812 406.371094 C 35.480469 408.398438 35.480469 410.488281 35.882812 412.519531 C 35.976562 412.984375 36.148438 413.414062 36.28125 413.863281 C 36.4375 414.394531 36.558594 414.933594 36.773438 415.449219 C 36.992188 415.980469 37.292969 416.460938 37.566406 416.960938 C 37.785156 417.355469 37.960938 417.769531 38.214844 418.152344 C 38.789062 419.015625 39.445312 419.820312 40.175781 420.550781 L 101.195312 481.570312 C 104.257812 484.632812 108.28125 486.167969 112.296875 486.167969 C 116.316406 486.167969 120.335938 484.632812 123.398438 481.570312 C 129.53125 475.4375 129.53125 465.496094 123.398438 459.363281 L 89.183594 425.148438 L 208.992188 425.148438 C 217.664062 425.148438 224.695312 418.117188 224.695312 409.445312 " fill-opacity="1" fill-rule="nonzero"/></g><g clip-path="url(#b83d762b71)"><path fill="#c2873f" d="M 340.726562 576.847656 L 306.507812 611.066406 L 306.507812 491.257812 C 306.507812 482.585938 299.476562 475.554688 290.804688 475.554688 C 282.132812 475.554688 275.105469 482.585938 275.105469 491.257812 L 275.105469 611.066406 L 240.882812 576.847656 C 234.757812 570.71875 224.808594 570.71875 218.679688 576.847656 C 212.546875 582.980469 212.546875 592.921875 218.679688 599.054688 L 279.699219 660.070312 C 280.429688 660.800781 281.234375 661.457031 282.097656 662.03125 C 282.480469 662.289062 282.898438 662.464844 283.296875 662.683594 C 283.796875 662.957031 284.273438 663.257812 284.800781 663.476562 C 285.3125 663.6875 285.851562 663.808594 286.378906 663.964844 C 286.832031 664.097656 287.265625 664.273438 287.730469 664.367188 C 288.746094 664.566406 289.777344 664.675781 290.804688 664.675781 C 291.835938 664.675781 292.863281 664.566406 293.878906 664.367188 C 294.347656 664.273438 294.777344 664.097656 295.230469 663.964844 C 295.761719 663.808594 296.296875 663.6875 296.8125 663.476562 C 297.335938 663.257812 297.816406 662.957031 298.3125 662.683594 C 298.710938 662.464844 299.128906 662.289062 299.511719 662.03125 C 300.375 661.457031 301.183594 660.800781 301.914062 660.070312 L 362.929688 599.054688 C 369.0625 592.921875 369.0625 582.980469 362.929688 576.847656 C 356.800781 570.71875 346.855469 570.71875 340.726562 576.847656 " fill-opacity="1" fill-rule="nonzero"/></g><g clip-path="url(#2115124ca0)"><path fill="#c2873f" d="M 229.78125 246.636719 C 233.800781 246.636719 237.820312 245.105469 240.882812 242.039062 L 275.105469 207.820312 L 275.105469 327.628906 C 275.105469 336.300781 282.132812 343.332031 290.804688 343.332031 C 299.476562 343.332031 306.507812 336.300781 306.507812 327.628906 L 306.507812 207.820312 L 340.726562 242.039062 C 343.789062 245.105469 347.8125 246.636719 351.828125 246.636719 C 355.847656 246.636719 359.867188 245.105469 362.929688 242.039062 C 369.0625 235.90625 369.0625 225.964844 362.929688 219.832031 L 301.914062 158.816406 C 301.183594 158.085938 300.375 157.429688 299.511719 156.855469 C 299.128906 156.597656 298.710938 156.421875 298.3125 156.199219 C 297.816406 155.929688 297.335938 155.628906 296.8125 155.410156 C 296.304688 155.203125 295.777344 155.082031 295.253906 154.929688 C 294.792969 154.792969 294.351562 154.613281 293.878906 154.519531 C 292.914062 154.328125 291.9375 154.238281 290.960938 154.226562 C 290.90625 154.226562 290.859375 154.210938 290.804688 154.210938 C 290.753906 154.210938 290.703125 154.226562 290.652344 154.226562 C 289.671875 154.238281 288.695312 154.328125 287.734375 154.519531 C 287.257812 154.613281 286.816406 154.792969 286.359375 154.929688 C 285.835938 155.082031 285.308594 155.203125 284.800781 155.410156 C 284.273438 155.628906 283.796875 155.929688 283.300781 156.199219 C 282.898438 156.421875 282.480469 156.597656 282.097656 156.855469 C 281.234375 157.429688 280.429688 158.085938 279.699219 158.816406 L 218.679688 219.832031 C 212.546875 225.964844 212.546875 235.90625 218.679688 242.039062 C 221.746094 245.105469 225.765625 246.636719 229.78125 246.636719 " fill-opacity="1" fill-rule="nonzero"/></g><path fill="#c2873f" d="M 404.988281 374.808594 C 388.347656 374.808594 374.808594 388.347656 374.808594 404.988281 C 374.808594 421.644531 388.347656 435.195312 404.988281 435.195312 C 421.640625 435.195312 435.191406 421.644531 435.191406 404.988281 C 435.191406 388.347656 421.640625 374.808594 404.988281 374.808594 " fill-opacity="1" fill-rule="nonzero"/><g clip-path="url(#db280413c5)"><path fill="#c2873f" d="M 549.03125 406.902344 C 546.90625 409.300781 506.359375 454.394531 451.09375 473.035156 C 472.429688 458.300781 486.441406 433.683594 486.441406 405.851562 C 486.441406 375.738281 470.046875 349.382812 445.710938 335.246094 C 503.710938 352.652344 546.839844 400.617188 549.035156 403.09375 L 550.722656 404.996094 Z M 260.953125 406.902344 L 259.265625 404.996094 L 260.929688 403.117188 C 263.128906 400.65625 306.140625 353.21875 363.460938 335.550781 C 339.417969 349.761719 323.25 375.953125 323.25 405.851562 C 323.25 433.523438 337.101562 458.015625 358.230469 472.773438 C 303.390625 453.980469 263.070312 409.28125 260.953125 406.902344 Z M 404.84375 471.828125 C 368.464844 471.828125 338.871094 442.230469 338.871094 405.851562 C 338.871094 369.46875 368.464844 339.867188 404.84375 339.867188 C 441.226562 339.867188 470.824219 369.46875 470.824219 405.851562 C 470.824219 442.230469 441.226562 471.828125 404.84375 471.828125 Z M 567.007812 399.8125 L 560.71875 392.730469 C 557.847656 389.488281 489.398438 313.378906 404.996094 313.378906 C 369.6875 313.378906 333.121094 326.359375 296.316406 351.964844 C 269.078125 370.910156 251.234375 390.53125 249.265625 392.730469 L 242.984375 399.816406 C 240.363281 402.773438 240.363281 407.222656 242.984375 410.175781 L 249.277344 417.273438 C 251.199219 419.433594 268.847656 438.9375 296.289062 458.027344 C 333.089844 483.632812 369.664062 496.617188 404.996094 496.617188 C 489.398438 496.617188 557.847656 420.503906 560.714844 417.269531 L 567.007812 410.183594 C 569.632812 407.222656 569.632812 402.769531 567.007812 399.8125 " fill-opacity="1" fill-rule="nonzero"/></g><g clip-path="url(#0be9251fec)"><path fill="#f6e3b4" d="M 472.34375 404.996094 C 472.34375 406.097656 472.316406 407.199219 472.261719 408.300781 C 472.207031 409.402344 472.128906 410.5 472.019531 411.597656 C 471.910156 412.695312 471.777344 413.789062 471.613281 414.878906 C 471.453125 415.96875 471.265625 417.054688 471.050781 418.136719 C 470.835938 419.214844 470.59375 420.289062 470.324219 421.359375 C 470.058594 422.429688 469.761719 423.492188 469.445312 424.546875 C 469.125 425.601562 468.777344 426.648438 468.40625 427.683594 C 468.035156 428.722656 467.640625 429.75 467.21875 430.769531 C 466.796875 431.789062 466.347656 432.792969 465.878906 433.789062 C 465.40625 434.789062 464.910156 435.769531 464.390625 436.742188 C 463.871094 437.714844 463.328125 438.675781 462.761719 439.621094 C 462.195312 440.566406 461.605469 441.496094 460.992188 442.414062 C 460.382812 443.328125 459.746094 444.230469 459.089844 445.113281 C 458.433594 446 457.753906 446.867188 457.054688 447.722656 C 456.355469 448.574219 455.636719 449.40625 454.898438 450.222656 C 454.15625 451.039062 453.398438 451.839844 452.617188 452.617188 C 451.839844 453.398438 451.039062 454.15625 450.222656 454.898438 C 449.40625 455.636719 448.574219 456.355469 447.722656 457.054688 C 446.867188 457.753906 446 458.433594 445.113281 459.089844 C 444.230469 459.746094 443.328125 460.382812 442.414062 460.992188 C 441.496094 461.605469 440.566406 462.195312 439.621094 462.761719 C 438.675781 463.328125 437.714844 463.871094 436.742188 464.390625 C 435.769531 464.910156 434.789062 465.40625 433.789062 465.878906 C 432.792969 466.347656 431.785156 466.796875 430.769531 467.21875 C 429.75 467.640625 428.722656 468.035156 427.683594 468.40625 C 426.648438 468.777344 425.601562 469.125 424.546875 469.445312 C 423.492188 469.761719 422.429688 470.058594 421.359375 470.324219 C 420.289062 470.59375 419.214844 470.835938 418.136719 471.050781 C 417.054688 471.265625 415.96875 471.453125 414.878906 471.613281 C 413.789062 471.777344 412.695312 471.910156 411.597656 472.019531 C 410.5 472.128906 409.402344 472.207031 408.300781 472.261719 C 407.199219 472.316406 406.097656 472.34375 404.996094 472.34375 C 403.894531 472.34375 402.792969 472.316406 401.691406 472.261719 C 400.589844 472.207031 399.492188 472.128906 398.394531 472.019531 C 397.296875 471.910156 396.203125 471.777344 395.113281 471.613281 C 394.023438 471.453125 392.9375 471.265625 391.855469 471.050781 C 390.777344 470.835938 389.699219 470.59375 388.632812 470.324219 C 387.5625 470.058594 386.5 469.761719 385.445312 469.445312 C 384.390625 469.125 383.34375 468.777344 382.308594 468.40625 C 381.269531 468.035156 380.242188 467.640625 379.222656 467.21875 C 378.203125 466.796875 377.199219 466.347656 376.199219 465.878906 C 375.203125 465.40625 374.21875 464.910156 373.25 464.390625 C 372.277344 463.871094 371.316406 463.328125 370.371094 462.761719 C 369.425781 462.195312 368.496094 461.605469 367.578125 460.992188 C 366.664062 460.382812 365.761719 459.746094 364.878906 459.089844 C 363.992188 458.433594 363.121094 457.753906 362.269531 457.054688 C 361.417969 456.355469 360.585938 455.636719 359.769531 454.898438 C 358.953125 454.15625 358.152344 453.398438 357.375 452.617188 C 356.59375 451.839844 355.835938 451.039062 355.09375 450.222656 C 354.355469 449.40625 353.632812 448.574219 352.933594 447.722656 C 352.234375 446.867188 351.558594 446 350.902344 445.113281 C 350.246094 444.230469 349.609375 443.328125 349 442.414062 C 348.386719 441.496094 347.796875 440.566406 347.230469 439.621094 C 346.664062 438.675781 346.121094 437.714844 345.601562 436.742188 C 345.082031 435.769531 344.585938 434.789062 344.113281 433.789062 C 343.644531 432.792969 343.195312 431.789062 342.773438 430.769531 C 342.351562 429.75 341.957031 428.722656 341.585938 427.683594 C 341.214844 426.648438 340.867188 425.601562 340.546875 424.546875 C 340.226562 423.492188 339.933594 422.429688 339.667969 421.359375 C 339.398438 420.289062 339.15625 419.214844 338.941406 418.136719 C 338.726562 417.054688 338.539062 415.96875 338.378906 414.878906 C 338.214844 413.789062 338.082031 412.695312 337.972656 411.597656 C 337.863281 410.5 337.785156 409.402344 337.730469 408.300781 C 337.675781 407.199219 337.648438 406.097656 337.648438 404.996094 C 337.648438 403.894531 337.675781 402.792969 337.730469 401.691406 C 337.785156 400.589844 337.863281 399.492188 337.972656 398.394531 C 338.082031 397.296875 338.214844 396.203125 338.378906 395.113281 C 338.539062 394.023438 338.726562 392.9375 338.941406 391.855469 C 339.15625 390.777344 339.398438 389.699219 339.667969 388.632812 C 339.933594 387.5625 340.226562 386.5 340.546875 385.445312 C 340.867188 384.390625 341.214844 383.34375 341.585938 382.308594 C 341.957031 381.269531 342.351562 380.242188 342.773438 379.222656 C 343.195312 378.203125 343.644531 377.199219 344.113281 376.203125 C 344.585938 375.203125 345.082031 374.21875 345.601562 373.25 C 346.121094 372.277344 346.664062 371.316406 347.230469 370.371094 C 347.796875 369.425781 348.386719 368.496094 349 367.578125 C 349.609375 366.664062 350.246094 365.761719 350.902344 364.878906 C 351.558594 363.992188 352.234375 363.125 352.933594 362.269531 C 353.632812 361.417969 354.355469 360.585938 355.09375 359.769531 C 355.835938 358.953125 356.59375 358.152344 357.375 357.375 C 358.152344 356.59375 358.953125 355.835938 359.769531 355.09375 C 360.585938 354.355469 361.417969 353.636719 362.269531 352.9375 C 363.121094 352.238281 363.992188 351.558594 364.878906 350.902344 C 365.761719 350.246094 366.664062 349.609375 367.578125 349 C 368.496094 348.386719 369.425781 347.796875 370.371094 347.230469 C 371.316406 346.664062 372.277344 346.121094 373.25 345.601562 C 374.21875 345.082031 375.203125 344.585938 376.199219 344.113281 C 377.199219 343.644531 378.203125 343.195312 379.222656 342.773438 C 380.242188 342.351562 381.269531 341.957031 382.308594 341.585938 C 383.34375 341.214844 384.390625 340.867188 385.445312 340.546875 C 386.5 340.226562 387.5625 339.933594 388.632812 339.667969 C 389.699219 339.398438 390.777344 339.15625 391.855469 338.941406 C 392.9375 338.726562 394.023438 338.539062 395.113281 338.378906 C 396.203125 338.214844 397.296875 338.082031 398.394531 337.972656 C 399.492188 337.863281 400.589844 337.785156 401.691406 337.730469 C 402.792969 337.675781 403.894531 337.648438 404.996094 337.648438 C 406.097656 337.648438 407.199219 337.675781 408.300781 337.730469 C 409.402344 337.785156 410.5 337.863281 411.597656 337.972656 C 412.695312 338.082031 413.789062 338.214844 414.878906 338.378906 C 415.96875 338.539062 417.054688 338.726562 418.136719 338.941406 C 419.214844 339.15625 420.289062 339.398438 421.359375 339.667969 C 422.429688 339.933594 423.492188 340.226562 424.546875 340.546875 C 425.601562 340.867188 426.648438 341.214844 427.683594 341.585938 C 428.722656 341.957031 429.75 342.351562 430.769531 342.773438 C 431.785156 343.195312 432.792969 343.644531 433.789062 344.113281 C 434.789062 344.585938 435.769531 345.082031 436.742188 345.601562 C 437.714844 346.121094 438.675781 346.664062 439.621094 347.230469 C 440.566406 347.796875 441.496094 348.386719 442.414062 349 C 443.328125 349.609375 444.230469 350.246094 445.113281 350.902344 C 446 351.558594 446.867188 352.238281 447.722656 352.9375 C 448.574219 353.636719 449.40625 354.355469 450.222656 355.09375 C 451.039062 355.835938 451.839844 356.59375 452.617188 357.375 C 453.398438 358.152344 454.15625 358.953125 454.898438 359.769531 C 455.636719 360.585938 456.355469 361.417969 457.054688 362.269531 C 457.753906 363.125 458.433594 363.992188 459.089844 364.878906 C 459.746094 365.761719 460.382812 366.664062 460.992188 367.578125 C 461.605469 368.496094 462.195312 369.425781 462.761719 370.371094 C 463.328125 371.316406 463.871094 372.277344 464.390625 373.25 C 464.910156 374.21875 465.40625 375.203125 465.878906 376.203125 C 466.347656 377.199219 466.796875 378.203125 467.21875 379.222656 C 467.640625 380.242188 468.035156 381.269531 468.40625 382.308594 C 468.777344 383.34375 469.125 384.390625 469.445312 385.445312 C 469.761719 386.5 470.058594 387.5625 470.324219 388.632812 C 470.59375 389.699219 470.835938 390.777344 471.050781 391.855469 C 471.265625 392.9375 471.453125 394.023438 471.613281 395.113281 C 471.777344 396.203125 471.910156 397.296875 472.019531 398.394531 C 472.128906 399.492188 472.207031 400.589844 472.261719 401.691406 C 472.316406 402.792969 472.34375 403.894531 472.34375 404.996094 Z M 472.34375 404.996094 " fill-opacity="1" fill-rule="nonzero"/></g><path fill="#c2873f" d="M 405.128906 375.300781 C 388.492188 375.300781 374.953125 388.839844 374.953125 405.476562 C 374.953125 422.136719 388.492188 435.6875 405.128906 435.6875 C 421.785156 435.6875 435.335938 422.136719 435.335938 405.476562 C 435.335938 388.839844 421.785156 375.300781 405.128906 375.300781 " fill-opacity="1" fill-rule="nonzero"/><g clip-path="url(#3dc8c61e45)"><path fill="#c2873f" d="M 549.171875 407.394531 C 547.046875 409.792969 506.503906 454.886719 451.234375 473.523438 C 472.574219 458.792969 486.582031 434.171875 486.582031 406.34375 C 486.582031 376.226562 470.1875 349.875 445.855469 335.738281 C 503.851562 353.144531 546.980469 401.109375 549.179688 403.585938 L 550.867188 405.488281 Z M 261.097656 407.394531 L 259.40625 405.488281 L 261.074219 403.605469 C 263.273438 401.144531 306.28125 353.710938 363.605469 336.042969 C 339.5625 350.253906 323.394531 376.445312 323.394531 406.34375 C 323.394531 434.011719 337.242188 458.507812 358.371094 473.265625 C 303.53125 454.472656 263.210938 409.773438 261.097656 407.394531 Z M 404.988281 472.316406 C 368.609375 472.316406 339.011719 442.722656 339.011719 406.34375 C 339.011719 369.960938 368.609375 340.359375 404.988281 340.359375 C 441.371094 340.359375 470.964844 369.960938 470.964844 406.34375 C 470.964844 442.722656 441.371094 472.316406 404.988281 472.316406 Z M 567.148438 400.300781 L 560.859375 393.21875 C 557.988281 389.980469 489.539062 313.871094 405.140625 313.871094 C 369.832031 313.871094 333.265625 326.851562 296.457031 352.457031 C 269.222656 371.402344 251.378906 391.023438 249.410156 393.21875 L 243.125 400.308594 C 240.503906 403.265625 240.503906 407.710938 243.125 410.667969 L 249.417969 417.761719 C 251.339844 419.925781 268.988281 439.429688 296.429688 458.519531 C 333.230469 484.125 369.804688 497.105469 405.140625 497.105469 C 489.539062 497.105469 557.988281 420.992188 560.855469 417.761719 L 567.148438 410.671875 C 569.777344 407.714844 569.777344 403.261719 567.148438 400.300781 " fill-opacity="1" fill-rule="nonzero"/></g></svg>