<svg xmlns="http://www.w3.org/2000/svg" xmlns:xlink="http://www.w3.org/1999/xlink" width="1080" zoomAndPan="magnify" viewBox="0 0 810 809.999993" height="1080" preserveAspectRatio="xMidYMid meet" version="1.0"><defs><clipPath id="8461d57537"><path d="M 89.746094 89.746094 L 720.496094 89.746094 L 720.496094 720.496094 L 89.746094 720.496094 Z M 89.746094 89.746094 " clip-rule="nonzero"/></clipPath></defs><g clip-path="url(#8461d57537)"><path fill="#f6e3b4" d="M 720.25 404.996094 C 720.25 410.15625 720.121094 415.3125 719.867188 420.464844 C 719.613281 425.617188 719.234375 430.761719 718.730469 435.894531 C 718.222656 441.03125 717.59375 446.148438 716.835938 451.253906 C 716.078125 456.355469 715.195312 461.4375 714.191406 466.5 C 713.183594 471.558594 712.054688 476.589844 710.800781 481.597656 C 709.546875 486.601562 708.171875 491.570312 706.671875 496.507812 C 705.175781 501.445312 703.558594 506.34375 701.820312 511.203125 C 700.082031 516.058594 698.226562 520.871094 696.25 525.636719 C 694.277344 530.40625 692.1875 535.121094 689.980469 539.785156 C 687.773438 544.449219 685.457031 549.054688 683.023438 553.605469 C 680.589844 558.15625 678.050781 562.644531 675.398438 567.066406 C 672.746094 571.492188 669.984375 575.851562 667.117188 580.140625 C 664.253906 584.429688 661.28125 588.648438 658.207031 592.792969 C 655.136719 596.9375 651.960938 601 648.6875 604.988281 C 645.417969 608.976562 642.046875 612.882812 638.582031 616.707031 C 635.117188 620.527344 631.5625 624.265625 627.914062 627.914062 C 624.265625 631.5625 620.527344 635.117188 616.707031 638.582031 C 612.882812 642.046875 608.976562 645.417969 604.988281 648.6875 C 601 651.960938 596.933594 655.136719 592.792969 658.207031 C 588.648438 661.28125 584.429688 664.253906 580.140625 667.117188 C 575.851562 669.984375 571.492188 672.746094 567.066406 675.398438 C 562.644531 678.050781 558.15625 680.589844 553.605469 683.023438 C 549.054688 685.457031 544.449219 687.773438 539.785156 689.980469 C 535.121094 692.1875 530.40625 694.277344 525.636719 696.25 C 520.871094 698.226562 516.058594 700.082031 511.203125 701.820312 C 506.34375 703.558594 501.445312 705.175781 496.507812 706.671875 C 491.570312 708.171875 486.601562 709.546875 481.597656 710.800781 C 476.589844 712.054688 471.558594 713.183594 466.5 714.191406 C 461.4375 715.195312 456.355469 716.078125 451.253906 716.835938 C 446.148438 717.59375 441.03125 718.222656 435.894531 718.730469 C 430.761719 719.234375 425.617188 719.617188 420.464844 719.867188 C 415.3125 720.121094 410.15625 720.25 404.996094 720.25 C 399.835938 720.25 394.679688 720.121094 389.527344 719.867188 C 384.375 719.617188 379.230469 719.234375 374.097656 718.730469 C 368.960938 718.222656 363.84375 717.59375 358.738281 716.835938 C 353.636719 716.078125 348.554688 715.195312 343.492188 714.191406 C 338.433594 713.183594 333.402344 712.054688 328.394531 710.800781 C 323.390625 709.546875 318.421875 708.171875 313.484375 706.671875 C 308.546875 705.175781 303.648438 703.558594 298.789062 701.820312 C 293.933594 700.082031 289.121094 698.226562 284.355469 696.25 C 279.585938 694.277344 274.871094 692.1875 270.207031 689.980469 C 265.542969 687.773438 260.9375 685.457031 256.386719 683.023438 C 251.835938 680.589844 247.347656 678.050781 242.925781 675.398438 C 238.5 672.746094 234.140625 669.984375 229.851562 667.117188 C 225.5625 664.253906 221.34375 661.28125 217.199219 658.207031 C 213.058594 655.136719 208.992188 651.960938 205.003906 648.6875 C 201.015625 645.417969 197.109375 642.046875 193.285156 638.582031 C 189.464844 635.117188 185.726562 631.5625 182.078125 627.914062 C 178.429688 624.265625 174.875 620.527344 171.410156 616.707031 C 167.945312 612.882812 164.574219 608.976562 161.304688 604.988281 C 158.03125 601 154.855469 596.933594 151.785156 592.792969 C 148.710938 588.648438 145.738281 584.429688 142.875 580.140625 C 140.007812 575.851562 137.246094 571.492188 134.59375 567.066406 C 131.941406 562.644531 129.402344 558.15625 126.96875 553.605469 C 124.535156 549.054688 122.21875 544.449219 120.011719 539.785156 C 117.804688 535.121094 115.714844 530.40625 113.742188 525.636719 C 111.765625 520.871094 109.910156 516.058594 108.171875 511.203125 C 106.433594 506.34375 104.816406 501.445312 103.320312 496.507812 C 101.820312 491.570312 100.445312 486.601562 99.191406 481.597656 C 97.9375 476.589844 96.808594 471.558594 95.800781 466.5 C 94.796875 461.4375 93.914062 456.355469 93.15625 451.253906 C 92.398438 446.148438 91.769531 441.03125 91.261719 435.894531 C 90.757812 430.761719 90.378906 425.617188 90.125 420.464844 C 89.871094 415.3125 89.746094 410.15625 89.746094 404.996094 C 89.746094 399.835938 89.871094 394.679688 90.125 389.527344 C 90.378906 384.375 90.757812 379.230469 91.261719 374.097656 C 91.769531 368.960938 92.398438 363.84375 93.15625 358.738281 C 93.914062 353.636719 94.796875 348.554688 95.800781 343.492188 C 96.808594 338.433594 97.9375 333.402344 99.191406 328.394531 C 100.445312 323.390625 101.820312 318.421875 103.320312 313.484375 C 104.816406 308.546875 106.433594 303.648438 108.171875 298.789062 C 109.910156 293.933594 111.765625 289.121094 113.742188 284.355469 C 115.714844 279.585938 117.804688 274.871094 120.011719 270.207031 C 122.21875 265.542969 124.535156 260.9375 126.96875 256.386719 C 129.402344 251.835938 131.941406 247.347656 134.59375 242.925781 C 137.246094 238.5 140.007812 234.140625 142.875 229.851562 C 145.738281 225.5625 148.710938 221.34375 151.785156 217.199219 C 154.855469 213.058594 158.03125 208.992188 161.304688 205.003906 C 164.574219 201.015625 167.945312 197.109375 171.410156 193.285156 C 174.875 189.464844 178.429688 185.726562 182.078125 182.078125 C 185.726562 178.429688 189.464844 174.875 193.285156 171.410156 C 197.109375 167.945312 201.015625 164.578125 205.003906 161.304688 C 208.992188 158.03125 213.058594 154.855469 217.199219 151.785156 C 221.34375 148.710938 225.5625 145.738281 229.851562 142.875 C 234.140625 140.007812 238.5 137.246094 242.925781 134.59375 C 247.347656 131.941406 251.835938 129.402344 256.386719 126.96875 C 260.9375 124.535156 265.542969 122.21875 270.207031 120.011719 C 274.871094 117.804688 279.585938 115.714844 284.355469 113.742188 C 289.121094 111.765625 293.933594 109.910156 298.789062 108.171875 C 303.648438 106.433594 308.546875 104.816406 313.484375 103.320312 C 318.421875 101.820312 323.390625 100.445312 328.394531 99.191406 C 333.402344 97.9375 338.433594 96.808594 343.492188 95.800781 C 348.554688 94.796875 353.636719 93.914062 358.738281 93.15625 C 363.84375 92.398438 368.960938 91.769531 374.097656 91.261719 C 379.230469 90.757812 384.375 90.378906 389.527344 90.125 C 394.679688 89.871094 399.835938 89.746094 404.996094 89.746094 C 410.15625 89.746094 415.3125 89.871094 420.464844 90.125 C 425.617188 90.378906 430.761719 90.757812 435.894531 91.261719 C 441.03125 91.769531 446.148438 92.398438 451.253906 93.15625 C 456.355469 93.914062 461.4375 94.796875 466.5 95.800781 C 471.558594 96.808594 476.589844 97.9375 481.597656 99.191406 C 486.601562 100.445312 491.570312 101.820312 496.507812 103.320312 C 501.445312 104.816406 506.34375 106.433594 511.203125 108.171875 C 516.058594 109.910156 520.871094 111.765625 525.636719 113.742188 C 530.40625 115.714844 535.121094 117.804688 539.785156 120.011719 C 544.449219 122.21875 549.054688 124.535156 553.605469 126.96875 C 558.15625 129.402344 562.644531 131.941406 567.066406 134.59375 C 571.492188 137.246094 575.851562 140.007812 580.140625 142.875 C 584.429688 145.738281 588.648438 148.710938 592.792969 151.785156 C 596.933594 154.855469 601 158.03125 604.988281 161.304688 C 608.976562 164.578125 612.882812 167.945312 616.707031 171.410156 C 620.527344 174.875 624.265625 178.429688 627.914062 182.078125 C 631.5625 185.726562 635.117188 189.464844 638.582031 193.285156 C 642.046875 197.109375 645.417969 201.015625 648.6875 205.003906 C 651.960938 208.992188 655.136719 213.058594 658.207031 217.199219 C 661.28125 221.34375 664.253906 225.5625 667.117188 229.851562 C 669.984375 234.140625 672.746094 238.5 675.398438 242.925781 C 678.050781 247.347656 680.589844 251.835938 683.023438 256.386719 C 685.457031 260.9375 687.773438 265.542969 689.980469 270.207031 C 692.1875 274.871094 694.277344 279.585938 696.25 284.355469 C 698.226562 289.121094 700.082031 293.933594 701.820312 298.789062 C 703.558594 303.648438 705.175781 308.546875 706.671875 313.484375 C 708.171875 318.421875 709.546875 323.390625 710.800781 328.394531 C 712.054688 333.402344 713.183594 338.433594 714.191406 343.492188 C 715.195312 348.554688 716.078125 353.636719 716.835938 358.738281 C 717.59375 363.84375 718.222656 368.960938 718.730469 374.097656 C 719.234375 379.230469 719.613281 384.375 719.867188 389.527344 C 720.121094 394.679688 720.25 399.835938 720.25 404.996094 Z M 720.25 404.996094 " fill-opacity="1" fill-rule="nonzero"/></g><path fill="#1d1a3a" d="M 380.929688 321.371094 C 402.769531 290.621094 438.355469 271.941406 476.722656 271.941406 L 524.628906 271.941406 L 524.628906 253.101562 C 524.628906 245.207031 529.386719 238.082031 536.691406 235.054688 C 543.992188 232.03125 552.394531 233.699219 557.980469 239.292969 C 571.179688 252.488281 620.503906 301.808594 620.503906 301.808594 C 627.398438 308.707031 627.398438 319.882812 620.503906 326.777344 C 620.503906 326.777344 571.179688 376.101562 557.980469 389.296875 C 552.394531 394.882812 543.992188 396.554688 536.691406 393.535156 C 529.386719 390.507812 524.628906 383.382812 524.628906 375.480469 L 524.628906 350.847656 L 476.722656 350.847656 C 462.378906 350.847656 449.21875 358.792969 442.542969 371.492188 L 424.914062 404.996094 L 442.542969 438.507812 C 449.21875 451.199219 462.378906 459.148438 476.722656 459.148438 L 524.628906 459.148438 L 524.628906 434.511719 C 524.628906 426.617188 529.386719 419.492188 536.691406 416.464844 C 543.992188 413.4375 552.394531 415.109375 557.980469 420.703125 C 571.179688 433.898438 620.503906 483.214844 620.503906 483.214844 C 627.398438 490.113281 627.398438 501.292969 620.503906 508.183594 C 620.503906 508.183594 571.179688 557.507812 557.980469 570.707031 C 552.394531 576.292969 543.992188 577.96875 536.691406 574.941406 C 529.386719 571.914062 524.628906 564.792969 524.628906 556.890625 L 524.628906 538.058594 L 476.722656 538.058594 C 438.363281 538.058594 402.78125 519.375 380.929688 488.621094 L 374.820312 500.222656 C 354.503906 538.851562 314.449219 563.039062 270.804688 563.039062 L 223.777344 563.039062 C 202 563.039062 184.320312 545.351562 184.320312 523.582031 C 184.320312 501.804688 202 484.125 223.777344 484.125 L 270.804688 484.125 C 285.148438 484.125 298.308594 476.179688 304.984375 463.480469 L 335.753906 404.996094 L 304.984375 346.511719 C 298.308594 333.820312 285.148438 325.867188 270.804688 325.867188 L 223.777344 325.867188 C 202 325.867188 184.320312 308.1875 184.320312 286.410156 C 184.320312 264.640625 202 246.953125 223.777344 246.953125 L 270.804688 246.953125 C 314.449219 246.953125 354.503906 271.144531 374.820312 309.769531 Z M 542.28125 476.804688 L 476.722656 476.804688 C 455.828125 476.804688 436.648438 465.222656 426.917969 446.730469 C 407.328125 409.484375 378.792969 355.230469 359.195312 317.992188 C 341.933594 285.164062 307.898438 264.609375 270.804688 264.609375 L 223.777344 264.609375 C 211.742188 264.609375 201.972656 274.382812 201.972656 286.410156 C 201.972656 298.449219 211.742188 308.214844 223.777344 308.214844 L 270.804688 308.214844 C 291.707031 308.214844 310.882812 319.796875 320.609375 338.289062 C 340.207031 375.53125 368.742188 429.78125 388.332031 467.023438 C 405.601562 499.847656 439.636719 520.402344 476.722656 520.402344 L 542.28125 520.402344 L 542.28125 556.890625 C 542.28125 557.648438 542.742188 558.339844 543.449219 558.625 C 544.148438 558.921875 544.960938 558.757812 545.496094 558.222656 C 558.695312 545.023438 608.019531 495.699219 608.019531 495.699219 C 608.019531 495.699219 558.695312 446.382812 545.496094 433.1875 C 544.960938 432.644531 544.148438 432.480469 543.449219 432.777344 C 542.742188 433.066406 542.28125 433.753906 542.28125 434.511719 Z M 345.730469 423.957031 L 320.609375 471.703125 C 310.882812 490.203125 291.707031 501.777344 270.804688 501.777344 L 223.777344 501.777344 C 211.742188 501.777344 201.972656 511.546875 201.972656 523.582031 C 201.972656 535.613281 211.742188 545.382812 223.777344 545.382812 L 270.804688 545.382812 C 307.898438 545.382812 341.933594 524.828125 359.195312 492 L 370.363281 470.78125 Z M 414.945312 386.035156 L 426.917969 363.269531 C 436.648438 344.777344 455.828125 333.195312 476.722656 333.195312 L 542.28125 333.195312 L 542.28125 375.480469 C 542.28125 376.238281 542.742188 376.933594 543.449219 377.214844 C 544.148438 377.511719 544.960938 377.347656 545.496094 376.8125 C 558.695312 363.617188 608.019531 314.292969 608.019531 314.292969 C 608.019531 314.292969 558.695312 264.972656 545.496094 251.769531 C 544.960938 251.234375 544.148438 251.070312 543.449219 251.367188 C 542.742188 251.65625 542.28125 252.34375 542.28125 253.101562 L 542.28125 289.59375 L 476.722656 289.59375 C 441.035156 289.59375 408.175781 308.617188 390.363281 339.304688 Z M 414.945312 386.035156 " fill-opacity="1" fill-rule="evenodd"/></svg>